<?xml version="1.0" encoding="utf-8"?>
<!-- Generator: Adobe Illustrator 26.2.1, SVG Export Plug-In . SVG Version: 6.00 Build 0)  -->
<svg version="1.1" id="Layer_1" xmlns="http://www.w3.org/2000/svg" xmlns:xlink="http://www.w3.org/1999/xlink" x="0px" y="0px"
	 viewBox="0 0 1016.79 194.09" style="enable-background:new 0 0 1016.79 194.09;" xml:space="preserve">
<style type="text/css">
	.st0{fill:#FF931E;}
	.st1{fill:#650001;}
</style>
<g>
	<path class="st0" d="M3.35,111.7V82.39l80.61-27.77v16.2L9.14,95.89v2.31l74.82,25.07v16.2L3.35,111.7z"/>
	<path class="st1" d="M185.97,129.44c-2.19,11.31-7.36,20.44-15.52,27.38c-8.17,6.94-19.06,10.41-32.69,10.41
		c-7.07,0-13.66-1.09-19.77-3.28c-6.11-2.18-11.41-5.33-15.91-9.45c-4.5-4.11-8.04-9.19-10.61-15.23
		c-2.57-6.04-3.86-12.92-3.86-20.63v-2.31c0-7.71,1.28-14.66,3.86-20.83c2.57-6.17,6.14-11.44,10.7-15.81
		c4.56-4.37,9.9-7.71,16.01-10.03c6.1-2.31,12.63-3.47,19.57-3.47c13.37,0,24.2,3.47,32.49,10.41c8.29,6.94,13.53,16.07,15.72,27.38
		l-23.91,6.17c-0.77-5.66-3.21-10.54-7.33-14.66c-4.12-4.11-9.9-6.17-17.36-6.17c-3.47,0-6.75,0.64-9.83,1.93
		c-3.09,1.29-5.79,3.12-8.1,5.5c-2.31,2.38-4.15,5.27-5.5,8.68c-1.35,3.41-2.02,7.23-2.02,11.47v1.16c0,4.24,0.67,8,2.02,11.28
		c1.35,3.28,3.18,6.01,5.5,8.2c2.31,2.19,5.01,3.83,8.1,4.92c3.09,1.09,6.36,1.64,9.83,1.64c7.45,0,13.14-1.86,17.07-5.59
		c3.92-3.73,6.46-8.74,7.62-15.04L185.97,129.44z"/>
	<path class="st1" d="M279.3,117.87c0,7.97-1.35,15.01-4.05,21.12c-2.7,6.11-6.36,11.25-10.99,15.43
		c-4.63,4.18-9.93,7.36-15.91,9.54s-12.25,3.28-18.8,3.28c-6.56,0-12.82-1.09-18.8-3.28s-11.28-5.37-15.91-9.54
		c-4.63-4.18-8.29-9.32-10.99-15.43c-2.7-6.1-4.05-13.14-4.05-21.12v-2.31c0-7.84,1.35-14.82,4.05-20.92
		c2.7-6.1,6.36-11.28,10.99-15.52c4.63-4.24,9.93-7.45,15.91-9.64c5.98-2.18,12.25-3.28,18.8-3.28c6.56,0,12.82,1.09,18.8,3.28
		c5.98,2.19,11.28,5.4,15.91,9.64c4.63,4.24,8.29,9.42,10.99,15.52c2.7,6.11,4.05,13.08,4.05,20.92V117.87z M229.55,144.1
		c3.47,0,6.75-0.58,9.83-1.74s5.79-2.83,8.1-5.01c2.31-2.18,4.15-4.85,5.5-8c1.35-3.15,2.02-6.72,2.02-10.7v-3.86
		c0-3.98-0.67-7.55-2.02-10.7c-1.35-3.15-3.18-5.82-5.5-8c-2.31-2.18-5.01-3.86-8.1-5.01s-6.36-1.74-9.83-1.74
		c-3.47,0-6.75,0.58-9.83,1.74s-5.79,2.83-8.1,5.01c-2.31,2.19-4.15,4.85-5.5,8c-1.35,3.15-2.02,6.72-2.02,10.7v3.86
		c0,3.99,0.68,7.55,2.02,10.7c1.35,3.15,3.18,5.82,5.5,8c2.31,2.19,5.01,3.86,8.1,5.01S226.08,144.1,229.55,144.1z"/>
	<path class="st1" d="M343.33,68.89h24.3v95.65h-24.3v-13.88h-3.47c-4.24,11.06-13.37,16.58-27.38,16.58
		c-4.76,0-9.19-0.77-13.31-2.31c-4.12-1.54-7.71-3.92-10.8-7.14c-3.09-3.21-5.5-7.23-7.23-12.05c-1.74-4.82-2.6-10.51-2.6-17.07
		V68.89h24.3v54.77c0,6.82,1.61,12.12,4.82,15.91c3.21,3.79,8.03,5.69,14.46,5.69c7.33,0,12.69-2.34,16.1-7.04
		c3.4-4.69,5.11-11.09,5.11-19.19V68.89z"/>
	<path class="st1" d="M370.9,141.4h33.55V52.69h-32.4V29.55h56.69V141.4h31.24v23.14H370.9V141.4z"/>
	<path class="st1" d="M533.08,150.65h-3.47c-1.03,2.19-2.28,4.28-3.76,6.27c-1.48,1.99-3.41,3.76-5.79,5.3
		c-2.38,1.54-5.21,2.76-8.48,3.66c-3.28,0.9-7.23,1.35-11.86,1.35c-5.92,0-11.41-1.06-16.49-3.18c-5.08-2.12-9.52-5.27-13.31-9.45
		c-3.79-4.18-6.75-9.29-8.87-15.33c-2.12-6.04-3.18-12.98-3.18-20.83v-3.47c0-7.71,1.12-14.59,3.37-20.63
		c2.25-6.04,5.33-11.15,9.26-15.33c3.92-4.18,8.48-7.36,13.69-9.54c5.21-2.18,10.7-3.28,16.49-3.28c7.71,0,13.82,1.45,18.32,4.34
		c4.5,2.89,8.03,6.97,10.61,12.25h3.47V29.55h24.3v134.99h-24.3V150.65z M507.62,144.1c7.58,0,13.72-2.41,18.42-7.23
		c4.69-4.82,7.04-11.15,7.04-18.99v-2.31c0-7.84-2.35-14.17-7.04-18.99c-4.69-4.82-10.83-7.23-18.42-7.23
		c-7.59,0-13.72,2.35-18.42,7.04c-4.69,4.69-7.04,11.09-7.04,19.19v2.31c0,8.1,2.34,14.5,7.04,19.19
		C493.9,141.75,500.04,144.1,507.62,144.1z"/>
	<path class="st1" d="M670.57,164.54h-24.3V29.55h24.3v53.22h3.47c2.57-5.27,6.3-9.35,11.18-12.25c4.88-2.89,11.12-4.34,18.71-4.34
		c5.66,0,11.02,1.09,16.1,3.28c5.08,2.19,9.51,5.37,13.31,9.54c3.79,4.18,6.81,9.29,9.06,15.33c2.25,6.04,3.37,12.92,3.37,20.63
		v3.47c0,7.84-1.09,14.79-3.28,20.83c-2.19,6.04-5.14,11.15-8.87,15.33c-3.73,4.18-8.13,7.33-13.21,9.45
		c-5.08,2.12-10.58,3.18-16.49,3.18c-4.37,0-8.17-0.45-11.38-1.35c-3.21-0.9-6.01-2.12-8.39-3.66c-2.38-1.54-4.37-3.31-5.98-5.3
		c-1.61-1.99-2.99-4.08-4.15-6.27h-3.47V164.54z M696.03,144.1c7.58,0,13.72-2.34,18.42-7.04c4.69-4.69,7.04-11.09,7.04-19.19v-2.31
		c0-8.1-2.35-14.49-7.04-19.19c-4.69-4.69-10.83-7.04-18.42-7.04c-7.59,0-13.72,2.41-18.42,7.23c-4.69,4.82-7.04,11.15-7.04,18.99
		v2.31c0,7.84,2.34,14.17,7.04,18.99C682.3,141.69,688.44,144.1,696.03,144.1z"/>
	<path class="st1" d="M764.68,124.62c0.13,2.83,0.8,5.43,2.03,7.81c1.22,2.38,2.89,4.43,5.01,6.17c2.12,1.74,4.56,3.09,7.33,4.05
		c2.76,0.96,5.69,1.45,8.77,1.45c6.04,0,10.67-1.06,13.88-3.18c3.21-2.12,5.53-4.66,6.94-7.62l20.83,11.57
		c-1.16,2.44-2.77,4.98-4.82,7.62c-2.06,2.64-4.72,5.05-8,7.23c-3.28,2.19-7.26,3.99-11.96,5.4c-4.7,1.41-10.19,2.12-16.49,2.12
		c-7.2,0-13.76-1.16-19.67-3.47c-5.92-2.31-11.03-5.66-15.33-10.03c-4.31-4.37-7.65-9.71-10.03-16.01
		c-2.38-6.3-3.57-13.43-3.57-21.41v-1.16c0-7.33,1.25-14.01,3.76-20.05c2.51-6.04,5.95-11.18,10.32-15.43
		c4.37-4.24,9.48-7.55,15.33-9.93c5.85-2.38,12.12-3.57,18.8-3.57c8.23,0,15.3,1.45,21.21,4.34c5.91,2.89,10.8,6.56,14.66,10.99
		c3.86,4.44,6.68,9.32,8.49,14.66c1.8,5.34,2.7,10.51,2.7,15.52v12.92H764.68z M787.63,88.17c-6.17,0-11.18,1.58-15.04,4.72
		c-3.86,3.15-6.36,6.78-7.52,10.9h45.12c-0.77-4.5-3.18-8.23-7.23-11.18C798.91,89.65,793.8,88.17,787.63,88.17z"/>
	<path class="st1" d="M898.12,5.45l21.98,6.94l-57.66,176.25l-22.18-6.94L898.12,5.45z"/>
	<path class="st0" d="M932.83,139.47v-16.2l74.82-25.07v-2.31l-74.82-25.07v-16.2l80.61,27.77v29.31L932.83,139.47z"/>
</g>
</svg>
