<?xml version="1.0" encoding="utf-8"?>
<!-- Generator: Adobe Illustrator 26.2.1, SVG Export Plug-In . SVG Version: 6.00 Build 0)  -->
<svg version="1.1" id="Layer_1" xmlns="http://www.w3.org/2000/svg" xmlns:xlink="http://www.w3.org/1999/xlink" x="0px" y="0px"
	 viewBox="0 0 1426.34 330.85" style="enable-background:new 0 0 1426.34 330.85;" xml:space="preserve">
<style type="text/css">
	.st0{fill:#FF931E;}
	.st1{fill:#650001;}
	.st2{fill-rule:evenodd;clip-rule:evenodd;fill:#FF8906;}
	.st3{opacity:0.5;}
	.st4{fill-rule:evenodd;clip-rule:evenodd;fill:#FFFFFF;}
	.st5{opacity:0.3;}
	.st6{fill-rule:evenodd;clip-rule:evenodd;fill:#650001;}
	.st7{fill-rule:evenodd;clip-rule:evenodd;fill:#FFBD02;}
	.st8{fill-rule:evenodd;clip-rule:evenodd;fill:#EB2D04;}
	.st9{fill-rule:evenodd;clip-rule:evenodd;fill:#99CC33;}
	.st10{opacity:0.2;}
</style>
<g>
	<g>
		<path class="st0" d="M0,172.98v-29.31l80.61-27.77v16.2L5.79,157.16v2.31l74.82,25.07v16.2L0,172.98z"/>
		<path class="st1" d="M182.62,190.72c-2.19,11.31-7.36,20.44-15.52,27.38c-8.17,6.94-19.06,10.41-32.69,10.41
			c-7.07,0-13.66-1.09-19.77-3.28c-6.11-2.18-11.41-5.33-15.91-9.45c-4.5-4.11-8.04-9.19-10.61-15.23
			c-2.57-6.04-3.86-12.92-3.86-20.63v-2.31c0-7.71,1.28-14.66,3.86-20.83c2.57-6.17,6.14-11.44,10.7-15.81
			c4.56-4.37,9.9-7.71,16.01-10.03c6.1-2.31,12.63-3.47,19.57-3.47c13.37,0,24.2,3.47,32.49,10.41
			c8.29,6.94,13.53,16.07,15.72,27.38l-23.91,6.17c-0.77-5.66-3.21-10.54-7.33-14.66c-4.12-4.11-9.9-6.17-17.36-6.17
			c-3.47,0-6.75,0.65-9.83,1.93c-3.09,1.29-5.79,3.12-8.1,5.5c-2.31,2.38-4.15,5.27-5.5,8.68c-1.35,3.41-2.02,7.23-2.02,11.47v1.16
			c0,4.24,0.67,8,2.02,11.28c1.35,3.28,3.18,6.01,5.5,8.2c2.31,2.19,5.01,3.83,8.1,4.92c3.09,1.09,6.36,1.64,9.83,1.64
			c7.45,0,13.14-1.86,17.07-5.59c3.92-3.73,6.46-8.74,7.62-15.04L182.62,190.72z"/>
		<path class="st1" d="M275.95,179.15c0,7.97-1.35,15.01-4.05,21.12c-2.7,6.11-6.36,11.25-10.99,15.43
			c-4.63,4.18-9.93,7.36-15.91,9.55s-12.25,3.28-18.8,3.28c-6.56,0-12.82-1.09-18.8-3.28s-11.28-5.37-15.91-9.55
			c-4.63-4.18-8.29-9.32-10.99-15.43c-2.7-6.1-4.05-13.14-4.05-21.12v-2.31c0-7.84,1.35-14.82,4.05-20.92
			c2.7-6.1,6.36-11.28,10.99-15.52c4.63-4.24,9.93-7.45,15.91-9.64c5.98-2.18,12.25-3.28,18.8-3.28c6.56,0,12.82,1.09,18.8,3.28
			c5.98,2.19,11.28,5.4,15.91,9.64c4.63,4.24,8.29,9.42,10.99,15.52c2.7,6.11,4.05,13.08,4.05,20.92V179.15z M226.2,205.37
			c3.47,0,6.75-0.58,9.83-1.74c3.09-1.16,5.79-2.83,8.1-5.01c2.31-2.18,4.15-4.85,5.5-8c1.35-3.15,2.02-6.72,2.02-10.7v-3.86
			c0-3.98-0.67-7.55-2.02-10.7c-1.35-3.15-3.18-5.81-5.5-8c-2.31-2.18-5.01-3.86-8.1-5.01c-3.09-1.16-6.36-1.74-9.83-1.74
			c-3.47,0-6.75,0.58-9.83,1.74c-3.09,1.16-5.79,2.83-8.1,5.01c-2.31,2.19-4.15,4.85-5.5,8c-1.35,3.15-2.02,6.72-2.02,10.7v3.86
			c0,3.99,0.68,7.55,2.02,10.7c1.35,3.15,3.18,5.82,5.5,8c2.31,2.19,5.01,3.86,8.1,5.01C219.45,204.79,222.73,205.37,226.2,205.37z"
			/>
		<path class="st1" d="M339.97,130.17h24.3v95.65h-24.3v-13.88h-3.47c-4.24,11.06-13.37,16.58-27.38,16.58
			c-4.76,0-9.19-0.77-13.31-2.31c-4.12-1.54-7.71-3.92-10.8-7.13c-3.09-3.21-5.5-7.23-7.23-12.05c-1.74-4.82-2.6-10.51-2.6-17.07
			v-59.78h24.3v54.77c0,6.82,1.61,12.12,4.82,15.91c3.21,3.79,8.03,5.69,14.46,5.69c7.33,0,12.69-2.34,16.1-7.04
			c3.4-4.69,5.11-11.09,5.11-19.19V130.17z"/>
		<path class="st1" d="M367.55,202.67h33.55v-88.71h-32.4V90.83h56.69v111.85h31.24v23.14h-89.09V202.67z"/>
		<path class="st1" d="M529.73,211.93h-3.47c-1.03,2.19-2.28,4.28-3.76,6.27c-1.48,2-3.41,3.76-5.79,5.3
			c-2.38,1.54-5.21,2.76-8.48,3.66c-3.28,0.9-7.23,1.35-11.86,1.35c-5.92,0-11.41-1.06-16.49-3.18c-5.08-2.12-9.52-5.27-13.31-9.45
			c-3.79-4.18-6.75-9.29-8.87-15.33c-2.12-6.04-3.18-12.98-3.18-20.83v-3.47c0-7.71,1.12-14.59,3.37-20.63
			c2.25-6.04,5.33-11.15,9.26-15.33c3.92-4.18,8.48-7.36,13.69-9.55c5.21-2.18,10.7-3.28,16.49-3.28c7.71,0,13.82,1.45,18.32,4.34
			c4.5,2.89,8.03,6.98,10.61,12.25h3.47V90.83h24.3v134.99h-24.3V211.93z M504.27,205.37c7.58,0,13.72-2.41,18.42-7.23
			c4.69-4.82,7.04-11.15,7.04-19v-2.31c0-7.84-2.35-14.17-7.04-18.99c-4.69-4.82-10.83-7.23-18.42-7.23
			c-7.59,0-13.72,2.35-18.42,7.04c-4.69,4.69-7.04,11.09-7.04,19.19v2.31c0,8.1,2.34,14.5,7.04,19.19
			C490.55,203.03,496.69,205.37,504.27,205.37z"/>
		<path class="st1" d="M667.22,225.81h-24.3V90.83h24.3v53.22h3.47c2.57-5.27,6.3-9.35,11.18-12.25c4.88-2.89,11.12-4.34,18.71-4.34
			c5.66,0,11.02,1.09,16.1,3.28c5.08,2.19,9.51,5.37,13.31,9.55c3.79,4.18,6.81,9.29,9.06,15.33c2.25,6.04,3.37,12.92,3.37,20.63
			v3.47c0,7.84-1.09,14.79-3.28,20.83c-2.19,6.04-5.14,11.15-8.87,15.33c-3.73,4.18-8.13,7.33-13.21,9.45
			c-5.08,2.12-10.58,3.18-16.49,3.18c-4.37,0-8.17-0.45-11.38-1.35c-3.21-0.9-6.01-2.12-8.39-3.66c-2.38-1.54-4.37-3.31-5.98-5.3
			c-1.61-1.99-2.99-4.08-4.15-6.27h-3.47V225.81z M692.68,205.37c7.58,0,13.72-2.34,18.42-7.04c4.69-4.69,7.04-11.09,7.04-19.19
			v-2.31c0-8.1-2.35-14.49-7.04-19.19c-4.69-4.69-10.83-7.04-18.42-7.04c-7.59,0-13.72,2.41-18.42,7.23
			c-4.69,4.82-7.04,11.15-7.04,18.99v2.31c0,7.84,2.34,14.17,7.04,19C678.95,202.96,685.09,205.37,692.68,205.37z"/>
		<path class="st1" d="M761.33,185.9c0.13,2.83,0.8,5.43,2.03,7.81c1.22,2.38,2.89,4.44,5.01,6.17s4.56,3.08,7.33,4.05
			c2.76,0.96,5.69,1.45,8.77,1.45c6.04,0,10.67-1.06,13.88-3.18c3.21-2.12,5.53-4.66,6.94-7.62l20.83,11.57
			c-1.16,2.44-2.77,4.98-4.82,7.62c-2.06,2.64-4.72,5.05-8,7.23c-3.28,2.19-7.26,3.99-11.96,5.4c-4.7,1.41-10.19,2.12-16.49,2.12
			c-7.2,0-13.76-1.16-19.67-3.47c-5.92-2.31-11.03-5.66-15.33-10.03c-4.31-4.37-7.65-9.71-10.03-16.01
			c-2.38-6.3-3.57-13.43-3.57-21.4v-1.16c0-7.33,1.25-14.01,3.76-20.06c2.51-6.04,5.95-11.18,10.32-15.43
			c4.37-4.24,9.48-7.55,15.33-9.93c5.85-2.38,12.12-3.57,18.8-3.57c8.23,0,15.3,1.45,21.21,4.34c5.91,2.89,10.8,6.56,14.66,10.99
			c3.86,4.44,6.68,9.32,8.49,14.66c1.8,5.34,2.7,10.51,2.7,15.52v12.92H761.33z M784.27,149.45c-6.17,0-11.18,1.58-15.04,4.72
			c-3.86,3.15-6.36,6.78-7.52,10.9h45.12c-0.77-4.5-3.18-8.23-7.23-11.18C795.56,150.93,790.44,149.45,784.27,149.45z"/>
		<path class="st1" d="M894.77,66.72l21.98,6.94l-57.66,176.25l-22.18-6.94L894.77,66.72z"/>
		<path class="st0" d="M929.48,200.75v-16.2l74.82-25.07v-2.31l-74.82-25.07v-16.2l80.61,27.77v29.31L929.48,200.75z"/>
	</g>
	<g>
		<g>
			<g>
				<path class="st2" d="M1086.04,281.26c102.67-37.24,194.06-87.88,280.47-135.76c40.6,33.04,95.63-53,10.66-104.57
					C1311.49,1.55,1231.6-6.3,1159.51,19.57c-27.9,11.43-26.87,53.57-6.35,63.64c-48.95,78.23-77.15,132.99-84.62,164.27
					C1063.34,269.97,1070.18,287.01,1086.04,281.26z"/>
			</g>
			<g>
				<path class="st1" d="M1081.21,286.82c-4.33,0.23-8.24-1.06-11.37-3.83c-7.33-6.49-9.44-20.15-5.65-36.52
					c7.43-31.13,35.28-85.55,82.81-161.83c-8.66-6.53-13.78-18.6-13.32-32.17c0.57-16.98,9.82-31.17,24.14-37.04
					c0.06-0.02,0.12-0.05,0.18-0.07c73.65-26.43,154.37-18.51,221.47,21.73c31.6,19.18,48.62,46.2,46.73,74.15
					c-1.33,19.65-12.08,36.64-27.36,43.29c-10.84,4.71-22.6,3.33-32.69-3.72c-86.78,48.08-176.56,97.64-278.58,134.65c0,0,0,0,0,0
					C1085.38,286.26,1083.25,286.71,1081.21,286.82z M1086.04,281.26l0.01,0L1086.04,281.26z M1161.11,23.74
					c-11.13,4.6-18.05,15.45-18.5,29.03c-0.4,11.94,4.63,22.55,12.52,26.42c1.14,0.56,1.98,1.57,2.33,2.79
					c0.35,1.22,0.16,2.52-0.51,3.6c-48.46,77.45-76.74,132.27-84.06,162.93c-3.35,14.46-0.97,24.38,2.88,27.78
					c0.78,0.69,3.15,2.79,8.75,0.76c102.34-37.12,192.57-87.12,279.83-135.47c1.6-0.88,3.57-0.71,4.99,0.44
					c8.05,6.55,17.26,8.08,25.94,4.31c12.07-5.25,20.92-19.59,22.01-35.7c1.66-24.51-13.8-48.52-42.43-65.9
					C1310.11,5.92,1232.2-1.73,1161.11,23.74z"/>
			</g>
			<g class="st3">
				<path class="st4" d="M1420.33,93.85c-4.13-17.92-17.01-37.05-43.15-52.92C1311.49,1.55,1231.6-6.3,1159.51,19.57
					c-7.93,3.25-13.53,8.99-17,15.75c38.96-15.21,80.08-20.47,120.05-16.46c-0.45,0.28-0.73,0.62-0.81,1.01
					c-0.52,2.41,6.55,5.97,15.79,7.95c9.24,1.99,17.14,1.64,17.66-0.76c0.22-1.02-0.92-2.24-3.01-3.47
					C1339.79,34.03,1384.48,57.86,1420.33,93.85"/>
			</g>
			<g class="st5">
				<path class="st6" d="M1086.04,281.26c102.68-37.24,194.06-87.88,280.47-135.76c25.7,20.92,57.18-5.9,55.26-41.49
					c-3.19-15-20.37-23.68-33.85-18.74c-7.76,2.35-17.41,7.74-26.44,3.17l0,0.01c-62.34-36.98-136.28-46.13-208.43-34.02
					c-6.79,1.14-9.74-9.32-10.55-19.1l0,0.01c-3.91,15.59-4.27,27.25-1.08,34.97c0.44,1,0.94,1.96,1.47,2.89
					c3.24,5.22,8.65,8.04,16.22,8.45c79.01-16.9,143.66-4.75,193.94,36.44c2.71,14.2-10.76,25.03-40.41,32.48
					c-113.87,47.63-194.85,78.45-242.95,92.46c-0.43,1.53-0.81,3.01-1.16,4.44C1063.34,269.97,1070.18,287.01,1086.04,281.26"/>
			</g>
			<g>
				<path class="st1" d="M1081.21,286.82c-4.33,0.23-8.24-1.06-11.37-3.83c-7.33-6.49-9.44-20.15-5.65-36.52
					c7.43-31.13,35.28-85.55,82.81-161.83c-8.66-6.53-13.78-18.6-13.32-32.17c0.57-16.98,9.82-31.17,24.14-37.04
					c0.06-0.02,0.12-0.05,0.18-0.07c73.65-26.43,154.37-18.51,221.47,21.73c31.6,19.18,48.62,46.2,46.73,74.15
					c-1.33,19.65-12.08,36.64-27.37,43.29c-10.83,4.71-22.59,3.33-32.69-3.72c-86.84,48.11-176.6,97.65-278.58,134.64c0,0,0,0,0,0
					C1085.38,286.26,1083.25,286.71,1081.21,286.82z M1086.04,281.26l0.01,0L1086.04,281.26z M1161.11,23.74
					c-11.13,4.6-18.05,15.45-18.5,29.03c-0.4,11.94,4.63,22.55,12.52,26.42c1.14,0.56,1.98,1.57,2.33,2.79
					c0.35,1.22,0.16,2.52-0.51,3.6c-48.46,77.45-76.74,132.27-84.06,162.93c-3.35,14.46-0.97,24.38,2.88,27.78
					c0.78,0.69,3.15,2.79,8.75,0.76c102.31-37.11,192.51-87.08,279.74-135.41c1.59-0.88,3.66-0.76,5.08,0.39
					c8.05,6.55,17.26,8.08,25.94,4.31c12.07-5.25,20.92-19.59,22.01-35.7c1.66-24.51-13.8-48.52-42.43-65.9
					C1310.11,5.93,1232.2-1.73,1161.11,23.74z"/>
			</g>
			<g>
				<path class="st7" d="M1067.97,250.18c14.31-46.54,42.71-102.2,85.19-166.97c66.76-18.28,140.78-10.8,196.1,30.8
					c11.82,8.89,2.11,22.12-19.24,29.68c-39.48,13.98-56.14,29.17-56.26,46.25c-0.08,11.3-2.49,22.91-0.83,35.47
					c1.56,27.81-25.89,29.51-23.17,2.49c3.05-30.3,4-43.6-8.86-41.83c-59.95,22.41-88.41,47.22-85.38,74.46
					c8.48,26.7,5.46,45.03-9.07,55c-5.03,3.53-11.73,3.5-16.73-0.07c-5-3.57-7.19-9.91-5.48-15.81c7.69-22.86,8.98-39.26,3.86-49.19
					c-5.42-5.03-13.17-4.36-23.25,2.02C1082.09,264.2,1069.8,263.44,1067.97,250.18z"/>
			</g>
			<g>
				<path class="st1" d="M1139.17,322.6c-4.2,0.23-8.47-0.94-12.05-3.5c-6.53-4.67-9.41-12.98-7.17-20.69
					c0.02-0.06,0.04-0.12,0.06-0.18c7.07-21,8.57-36.13,4.47-45c-1.85-1.51-6.4-3.82-17.24,3.03c-0.11,0.07-0.22,0.14-0.34,0.2
					c-16.7,8.6-27.95,10.8-35.4,6.93c-3.05-1.59-6.91-5.06-7.94-12.59c-0.09-0.64-0.03-1.3,0.16-1.92
					c14.37-46.72,43.21-103.28,85.72-168.11c0.6-0.91,1.51-1.57,2.56-1.86c34.52-9.45,70.54-11.93,104.15-7.17
					c36.26,5.14,68.5,18.16,95.81,38.71c5.16,3.88,7.54,8.99,6.71,14.4c-1.37,8.91-11.52,17.53-27.15,23.07
					c-35.74,12.66-53.18,26.42-53.29,42.07c-0.03,4.2-0.37,8.47-0.7,12.6c-0.58,7.2-1.17,14.66-0.17,22.25
					c0.01,0.11,0.03,0.22,0.03,0.33c0.64,11.33-3.15,20.52-10.12,24.59c-4.6,2.68-9.9,2.62-14.2-0.14
					c-5.96-3.83-8.78-11.91-7.75-22.16c1.64-16.3,3.33-33.16-0.07-36.44c-0.57-0.55-1.67-0.73-3.28-0.57
					c-56.85,21.32-84.45,44.59-82.06,69.18c8.93,28.44,5.26,48.49-10.94,59.6C1146.03,321.28,1142.62,322.41,1139.17,322.6z
					 M1128.5,300.98c-1.14,4.05,0.38,8.4,3.81,10.85c3.45,2.46,8.09,2.48,11.56,0.04c12.87-8.82,15.27-25.17,7.38-49.99
					c-0.09-0.28-0.15-0.57-0.18-0.86c-1.68-15.1,5.24-29.53,20.58-42.9c14.57-12.7,37.34-24.9,67.68-36.24
					c0.31-0.12,0.63-0.2,0.95-0.24c4.72-0.65,8.47,0.34,11.16,2.93c6.25,6.02,5.3,18.46,2.75,43.77
					c-0.79,7.87,1.39,12.26,3.69,13.75c1.46,0.94,3.19,0.91,4.87-0.07c3.08-1.79,6.19-6.99,5.71-16.2
					c-1.09-8.47-0.46-16.34,0.14-23.96c0.33-4.15,0.64-8.07,0.67-11.95c0.15-20.14,18.97-36.17,59.24-50.43
					c13.76-4.87,20.61-11.55,21.3-16c0.12-0.77,0.48-3.1-3.25-5.9c-50.08-37.67-121.22-49.02-190.6-30.5
					c-41.24,63.06-69.3,118.03-83.42,163.41c0.74,3.75,2.46,4.65,3.06,4.96c2.54,1.32,9.42,2.18,27.02-6.86
					c14.8-9.29,23.67-5.9,28.51-1.41c0.38,0.35,0.69,0.77,0.93,1.23C1137.81,259.55,1136.64,276.75,1128.5,300.98z"/>
			</g>
			<g class="st3">
				<path class="st4" d="M1074.51,230.94c15.66-42.39,41.86-91.6,78.6-147.64c1.32-0.4,2.63-0.77,3.97-1.12l2.05-0.52
					c-29.34,56.05-56.4,109.02-81.18,158.91C1076.65,237.4,1075.51,234.18,1074.51,230.94"/>
			</g>
			<g>
				<path class="st1" d="M1139.17,322.6c-4.2,0.23-8.47-0.94-12.05-3.5c-6.53-4.67-9.41-12.98-7.17-20.69
					c0.02-0.06,0.04-0.12,0.06-0.18c7.06-21,8.57-36.13,4.47-45c-1.86-1.51-6.4-3.82-17.24,3.03c-0.11,0.07-0.22,0.13-0.34,0.19
					c-16.7,8.61-27.95,10.81-35.4,6.94c-3.05-1.59-6.91-5.06-7.94-12.59c-0.09-0.64-0.03-1.3,0.16-1.92
					c14.37-46.72,43.21-103.28,85.72-168.11c0.6-0.91,1.51-1.57,2.56-1.86c34.53-9.45,70.55-11.93,104.15-7.17
					c36.26,5.14,68.5,18.16,95.81,38.71c5.16,3.88,7.54,8.99,6.71,14.4c-1.37,8.91-11.52,17.53-27.15,23.07
					c-35.74,12.66-53.17,26.42-53.28,42.07c-0.03,4.2-0.37,8.47-0.7,12.59c-0.58,7.21-1.17,14.66-0.17,22.26
					c0.01,0.11,0.03,0.22,0.03,0.33c0.64,11.33-3.15,20.52-10.12,24.59c-4.6,2.68-9.91,2.63-14.2-0.14
					c-5.96-3.83-8.78-11.91-7.75-22.15c1.64-16.3,3.34-33.16-0.06-36.44c-0.57-0.55-1.67-0.73-3.28-0.57
					c-56.85,21.32-84.45,44.59-82.06,69.18c8.94,28.44,5.26,48.49-10.94,59.6C1146.02,321.28,1142.62,322.41,1139.17,322.6z
					 M1128.5,300.98c-1.14,4.05,0.38,8.4,3.81,10.85c3.45,2.46,8.09,2.48,11.56,0.04c12.87-8.82,15.27-25.16,7.38-49.99
					c-0.09-0.28-0.15-0.57-0.18-0.86c-1.68-15.1,5.24-29.53,20.58-42.9c14.57-12.7,37.34-24.9,67.68-36.24
					c0.31-0.12,0.63-0.2,0.95-0.24c4.72-0.65,8.47,0.34,11.16,2.94c6.25,6.03,5.3,18.46,2.75,43.77c-0.79,7.87,1.39,12.26,3.7,13.74
					c1.45,0.93,3.18,0.91,4.87-0.07c3.08-1.79,6.19-6.99,5.71-16.21c-1.09-8.47-0.46-16.35,0.15-23.97
					c0.33-4.15,0.65-8.06,0.67-11.94c0.14-20.14,18.96-36.16,59.24-50.43c13.76-4.87,20.61-11.55,21.3-16
					c0.12-0.77,0.48-3.1-3.25-5.9c-50.07-37.66-121.21-49.02-190.6-30.5c-41.24,63.06-69.3,118.03-83.42,163.41
					c0.74,3.75,2.46,4.65,3.06,4.96c2.54,1.32,9.42,2.18,27.02-6.86c14.8-9.28,23.67-5.89,28.51-1.4c0.38,0.35,0.69,0.77,0.93,1.23
					C1137.81,259.55,1136.64,276.75,1128.5,300.98z"/>
			</g>
			<g class="st5">
				<path class="st6" d="M1251.57,241.31c-1.59-3.18-2.39-7.63-1.81-13.4l0.34-3.38C1250.75,229.69,1251.25,235.28,1251.57,241.31
					 M1205.12,185.79L1205.12,185.79c4.91-2.71,10.13-5.42,15.66-8.16c6.82,0.4,12.53,3.6,17.11,9.58
					c-57.9,22.11-85.36,46.55-82.38,73.33c8.48,26.7,5.46,45.03-9.07,55c-5.03,3.53-11.73,3.5-16.73-0.07
					c-0.9-0.65-1.72-1.38-2.43-2.19l-0.83-20.62c-0.67,2.26-1.41,4.6-2.22,7c-1.41,4.84-0.19,9.96,3.05,13.62
					c21.01-2.14,27.01-22.32,17.99-60.53c-1.11-12.1,4.68-24.43,17.37-37l0,0l0.02-0.02c1.26-1.24,2.58-2.49,3.98-3.74
					c9.17-9.19,9.15-14.09-0.04-14.72c-1.47,0.09-2.92,0.08-4.34-0.01l-0.01,0l0,0c-12.21-0.79-22.26-7.95-24.1-18.21
					c-2.26-12.63,8.76-25.16,24.63-28c15.86-2.84,30.55,5.08,32.81,17.71c0.63,3.49,0.23,6.97-0.99,10.25l0,0l0,0
					c-0.48,1.29-1.1,2.55-1.83,3.76C1189.82,190.06,1193.94,191.07,1205.12,185.79z M1208.82,130.93c2.21-0.12,4.1,1.57,4.22,3.78
					c0.12,2.22-1.57,4.1-3.78,4.22c-2.21,0.12-4.1-1.57-4.22-3.79C1204.92,132.93,1206.61,131.05,1208.82,130.93z M1117.58,179.3
					c1.6-0.09,2.92,1.1,3.01,2.7c0.09,1.6-1.1,2.93-2.7,3.01c-1.6,0.09-2.92-1.1-3.01-2.7
					C1114.79,180.71,1115.98,179.39,1117.58,179.3z M1247.97,168.23c1.6-0.09,2.92,1.1,3.01,2.7c0.09,1.6-1.1,2.92-2.7,3.01
					c-1.6,0.09-2.92-1.1-3.01-2.7C1245.19,169.64,1246.37,168.31,1247.97,168.23z M1168.74,89.02c1.6-0.09,2.92,1.11,3.01,2.7
					c0.09,1.6-1.1,2.93-2.7,3.01c-1.6,0.09-2.92-1.11-3.01-2.7C1165.95,90.43,1167.14,89.1,1168.74,89.02z M1259.04,89.47
					c1.6-0.09,2.93,1.11,3.01,2.7c0.09,1.6-1.1,2.92-2.7,3.01c-1.6,0.09-2.92-1.1-3.01-2.7
					C1256.25,90.89,1257.44,89.56,1259.04,89.47z M1132.66,221.95c2.21-0.12,4.1,1.57,4.22,3.79c0.12,2.21-1.57,4.1-3.79,4.22
					c-2.21,0.12-4.1-1.57-4.22-3.78C1128.75,223.96,1130.45,222.07,1132.66,221.95z M1196.64,111.85c4.32,3.12,4.71,9.98,0.85,15.31
					c-3.85,5.33-10.48,7.12-14.81,4c-4.32-3.12-4.7-9.98-0.85-15.31C1185.69,110.52,1192.32,108.72,1196.64,111.85z M1316.24,108.63
					c-36.72-27.62-90.08-34.67-160.07-21.14c32.43-13.1,66.99-16.45,103.68-10.09l1.46-0.35c31.66,5.32,61.89,17.35,87.95,36.96
					c11.82,8.89,2.11,22.12-19.24,29.68c-39.48,13.98-56.14,29.17-56.26,46.25c-0.08,11.3-2.49,22.91-0.83,35.47
					c1.23,21.87-15.48,27.59-21.35,15.9c9.23-1.1,13.18-7.15,11.83-18.17c-0.27-24.83,2.59-43.63,8.57-56.39l0,0.01l0.01-0.02
					c0.8-1.69,1.65-3.27,2.55-4.75c3.65-7.71,1.92-10.25-5.18-7.62c-12.55,5.85-26.49,3-31.88-6.85
					c-5.67-10.36,0.29-24.54,13.31-31.66c13.02-7.13,28.17-4.51,33.84,5.86c2.48,4.53,2.74,9.79,1.15,14.87
					c4.05,6.07,10.62,6.83,19.71,2.29C1318.88,127.95,1322.46,117.86,1316.24,108.63z M1067.97,250.18
					c1.27-4.13,2.65-8.33,4.15-12.61c2.28-2.53,4.73-4.94,7.35-7.22c-6.17,22.71,6.24,26.83,37.25,12.35
					c3.3-0.01,5.9,0.86,7.81,2.61l0.12,2.86c-5.09-2.25-11.69-0.82-19.81,4.3C1082.09,264.2,1069.8,263.44,1067.97,250.18z"/>
			</g>
			<g>
				<path class="st2" d="M1403.02,106.13c5.22,3.28,5.61,12.07,0.86,19.64c-4.74,7.57-12.82,11.05-18.05,7.78
					c-5.22-3.28-5.61-12.07-0.86-19.63C1389.72,106.34,1397.8,102.86,1403.02,106.13z"/>
			</g>
			<g>
				<path class="st1" d="M1391.1,139.24c-2.7,0.15-5.32-0.46-7.63-1.9c-7.43-4.66-8.43-15.99-2.28-25.8
					c2.77-4.42,6.63-7.86,10.86-9.69c4.73-2.04,9.59-1.86,13.34,0.5c3.75,2.35,6.04,6.65,6.26,11.8c0.2,4.61-1.21,9.58-3.98,14
					C1403.44,134.89,1397.08,138.91,1391.1,139.24z M1398.28,109.37c-1.04,0.06-2.03,0.4-2.69,0.68c-2.55,1.1-5.03,3.37-6.83,6.23
					c-3.67,5.85-3.23,11.79-0.55,13.48c2.68,1.68,8.23-0.52,11.89-6.37c1.79-2.86,2.75-6.09,2.63-8.86
					c-0.06-1.27-0.4-3.57-2.08-4.62l0,0C1399.92,109.46,1399.08,109.33,1398.28,109.37z"/>
			</g>
			<g>
				<path class="st1" d="M1366.96,136.61c-0.8,0.04-1.63-0.13-2.39-0.55c-5.07-2.79-10.35-8.29-16.15-16.82
					c-1.39-2.04-0.86-4.82,1.18-6.21c2.04-1.39,4.82-0.86,6.21,1.18c6.13,9.02,10.49,12.6,13.07,14.02
					c2.16,1.19,2.95,3.91,1.76,6.07C1369.87,135.7,1368.45,136.53,1366.96,136.61z"/>
			</g>
			<g>
				<path class="st8" d="M1276.74,114.64c5.67,10.36-0.29,24.54-13.31,31.66c-13.02,7.13-28.17,4.5-33.84-5.86
					c-5.67-10.36,0.29-24.54,13.31-31.66S1271.07,104.28,1276.74,114.64z"/>
			</g>
			<g>
				<path class="st1" d="M1250.09,154.74c-2.4,0.13-4.78,0-7.1-0.4c-7.76-1.34-13.91-5.51-17.32-11.75
					c-3.41-6.23-3.61-13.66-0.55-20.92c2.9-6.91,8.46-12.88,15.64-16.81c7.18-3.93,15.2-5.39,22.59-4.11
					c7.76,1.34,13.91,5.51,17.32,11.75l0,0c6.84,12.51,0.08,29.43-15.08,37.73C1260.66,152.92,1255.33,154.45,1250.09,154.74z
					 M1256.72,109.27c-3.91,0.21-7.92,1.38-11.67,3.43c-5.41,2.96-9.57,7.38-11.69,12.43c-1.98,4.7-1.92,9.38,0.16,13.17
					c2.08,3.79,5.99,6.36,11.01,7.23c5.4,0.93,11.36-0.18,16.77-3.15c10.84-5.93,16.01-17.42,11.53-25.6
					c-2.08-3.79-5.98-6.36-11.01-7.23C1260.16,109.27,1258.45,109.18,1256.72,109.27z"/>
			</g>
			<g>
				<path class="st8" d="M1188.99,161.68c2.08,11.63-8.07,23.17-22.68,25.79c-14.61,2.62-28.15-4.69-30.23-16.31
					c-2.08-11.63,8.07-23.17,22.68-25.79C1173.37,142.75,1186.91,150.05,1188.99,161.68z"/>
			</g>
			<g>
				<path class="st1" d="M1162.39,192.42c-6.44,0.35-12.71-0.96-18.02-3.83c-6.93-3.74-11.44-9.65-12.69-16.64
					c-2.51-14.03,9.28-27.93,26.29-30.98c8.06-1.44,16.13-0.28,22.72,3.28c6.93,3.74,11.44,9.65,12.69,16.64c0,0,0,0,0,0
					c2.51,14.03-9.28,27.93-26.29,30.98C1165.52,192.15,1163.95,192.33,1162.39,192.42z M1163.18,149.34
					c-1.2,0.07-2.41,0.21-3.63,0.42c-12.16,2.18-20.72,11.42-19.07,20.61c0.76,4.25,3.65,7.93,8.14,10.35
					c4.82,2.6,10.82,3.44,16.9,2.35c12.16-2.18,20.72-11.42,19.07-20.61v0c-0.76-4.25-3.65-7.93-8.14-10.35
					C1172.59,150.03,1167.98,149.08,1163.18,149.34z"/>
			</g>
			<g>
				<path class="st1" d="M1248.97,192.66c-1.17,0.06-2.37-0.33-3.3-1.2c-2.38-2.23-8.31-4.84-23.05-4.62
					c-2.47,0.04-4.5-1.94-4.53-4.4c-0.04-2.47,1.91-4.53,4.4-4.53c14.43-0.21,24.01,2.09,29.29,7.03c1.8,1.69,1.89,4.51,0.21,6.32
					C1251.17,192.13,1250.08,192.6,1248.97,192.66z"/>
			</g>
			<g>
				<path class="st1" d="M1275.56,185.78c-0.31,0.02-0.63,0-0.95-0.05c-2.44-0.39-4.1-2.68-3.71-5.11
					c1.68-10.56,7.81-22.31,18.75-35.9c1.55-1.92,4.36-2.23,6.28-0.68c1.92,1.55,2.23,4.36,0.68,6.28
					c-9.8,12.17-15.48,22.84-16.89,31.7C1279.39,184.13,1277.62,185.67,1275.56,185.78z"/>
			</g>
			<g>
				<path class="st8" d="M1191.79,106.3c4.32,3.13,4.7,9.98,0.85,15.31c-3.85,5.33-10.48,7.13-14.8,4.01
					c-4.32-3.12-4.7-9.98-0.85-15.31C1180.84,104.97,1187.47,103.18,1191.79,106.3z"/>
			</g>
			<g>
				<path class="st1" d="M1183.46,131.58c-2.93,0.16-5.82-0.59-8.24-2.34c-3.16-2.28-5.1-6-5.34-10.2
					c-0.22-3.91,1.02-7.94,3.48-11.35c5.29-7.32,14.73-9.57,21.04-5.01c0,0,0,0,0,0c3.16,2.28,5.1,6,5.33,10.2
					c0.22,3.91-1.02,7.94-3.48,11.35C1193,128.74,1188.17,131.33,1183.46,131.58z M1186.6,109.23c-2.05,0.11-4.38,1.46-5.99,3.69
					c-1.25,1.73-1.91,3.78-1.8,5.62c0.05,0.88,0.33,2.5,1.65,3.45c2.28,1.65,6.2,0.27,8.57-3c1.25-1.73,1.91-3.77,1.8-5.62
					c-0.05-0.88-0.33-2.5-1.65-3.46C1188.45,109.4,1187.56,109.18,1186.6,109.23z"/>
			</g>
			<g>
				<path class="st9" d="M1123.77,200.31c3.74,2.71,4.07,8.63,0.74,13.25c-3.33,4.61-9.07,6.17-12.81,3.46
					c-3.74-2.7-4.07-8.63-0.73-13.24C1114.3,199.16,1120.03,197.61,1123.77,200.31z"/>
			</g>
			<g>
				<path class="st1" d="M1116.5,220.9c-2.3,0.12-4.48-0.49-6.3-1.8c-2.44-1.76-3.89-4.55-4.07-7.83c-0.17-3.08,0.81-6.27,2.77-8.98
					c1.95-2.7,4.67-4.64,7.65-5.45c3.18-0.86,6.27-0.36,8.72,1.41c0,0,0,0,0,0c4.87,3.52,5.46,11.07,1.31,16.81
					c-1.95,2.71-4.67,4.64-7.66,5.45C1118.11,220.72,1117.3,220.85,1116.5,220.9z M1119.22,201.55c-0.43,0.02-0.88,0.1-1.34,0.22
					c-1.86,0.5-3.58,1.75-4.85,3.51c-1.27,1.76-1.91,3.79-1.81,5.7c0.1,1.72,0.79,3.13,1.97,3.98c1.17,0.85,2.73,1.07,4.39,0.62
					c1.86-0.5,3.58-1.75,4.85-3.51c2.5-3.46,2.43-7.81-0.16-9.68C1121.42,201.77,1120.37,201.48,1119.22,201.55z"/>
			</g>
			<g>
				<path class="st9" d="M1310.11,121.17c0.78,1.02-0.2,3.07-2.18,4.58c-1.98,1.51-4.22,1.91-4.99,0.9
					c-0.78-1.02,0.2-3.07,2.18-4.58C1307.1,120.55,1309.33,120.15,1310.11,121.17z"/>
			</g>
			<g>
				<path class="st1" d="M1304.64,129.75c-1.57,0.09-2.91-0.46-3.74-1.56c-1.71-2.24-0.59-5.67,2.66-8.16
					c1.28-0.97,2.72-1.64,4.05-1.88c1.89-0.35,3.55,0.19,4.52,1.47l0,0c0.97,1.27,1.05,3.01,0.22,4.75
					c-0.58,1.23-1.61,2.44-2.88,3.41c-1.28,0.97-2.71,1.64-4.05,1.88C1305.16,129.71,1304.9,129.74,1304.64,129.75z M1308.08,122.72
					l0.01,0L1308.08,122.72z"/>
			</g>
			<g>
				<path class="st9" d="M1224.13,96.4c0.78,1.01-0.2,3.07-2.18,4.58c-1.98,1.51-4.22,1.91-4.99,0.9c-0.78-1.02,0.2-3.07,2.18-4.58
					C1221.11,95.79,1223.35,95.39,1224.13,96.4z"/>
			</g>
			<g>
				<path class="st1" d="M1218.66,104.99c-1.57,0.09-2.91-0.46-3.74-1.56c-0.97-1.27-1.05-3-0.22-4.75
					c0.58-1.22,1.61-2.44,2.88-3.41c3.26-2.48,6.86-2.66,8.57-0.42c0.63,0.83,0.9,1.9,0.75,3.03c-0.24,1.77-1.51,3.68-3.41,5.13
					c-1.28,0.97-2.71,1.64-4.05,1.88C1219.18,104.94,1218.92,104.97,1218.66,104.99z"/>
			</g>
			<g>
				<path class="st9" d="M1216.92,162.6c0.78,1.02-0.2,3.07-2.18,4.58s-4.22,1.91-5,0.9c-0.78-1.01,0.2-3.07,2.18-4.58
					C1213.9,161.99,1216.14,161.59,1216.92,162.6z"/>
			</g>
			<g>
				<path class="st1" d="M1211.45,171.19c-1.54,0.08-2.88-0.43-3.74-1.56c-0.97-1.27-1.05-3-0.22-4.75
					c0.58-1.22,1.61-2.44,2.88-3.41c3.25-2.48,6.85-2.66,8.57-0.42c0,0,0,0,0,0c0.97,1.27,1.05,3.01,0.22,4.75
					c-0.58,1.22-1.61,2.43-2.88,3.41C1214.67,170.45,1212.97,171.11,1211.45,171.19z M1215.54,164.6l0.01,0L1215.54,164.6z"/>
			</g>
			<g>
				<path class="st9" d="M1156.51,130.04c0.78,1.02-0.2,3.07-2.18,4.58c-1.98,1.51-4.22,1.91-5,0.9c-0.78-1.02,0.2-3.07,2.18-4.58
					S1155.73,129.02,1156.51,130.04z"/>
			</g>
			<g>
				<path class="st1" d="M1151.05,138.63c-1.54,0.08-2.88-0.43-3.74-1.56c-0.97-1.27-1.05-3.01-0.22-4.75
					c0.58-1.23,1.61-2.44,2.88-3.41c3.26-2.48,6.86-2.66,8.57-0.41c0,0,0,0,0,0c1.71,2.24,0.59,5.67-2.66,8.16
					C1154.26,137.89,1152.56,138.55,1151.05,138.63z M1155.14,132.03l0.01,0L1155.14,132.03z"/>
			</g>
			<g class="st5">
				<path class="st6" d="M1184.91,161.69c-4.08,5.11-10.59,9.02-18.36,10.42c-10.22,1.83-19.91-1.19-25.52-7.15
					c-0.16-0.17-0.31-0.34-0.46-0.51c-1.16-1.33-2.14-2.78-2.87-4.36c-0.76,1.58-1.3,3.23-1.6,4.91c-0.36,2.02-0.38,4.09-0.01,6.16
					c0.33,1.83,0.94,3.55,1.79,5.14c0.59,1.1,1.29,2.14,2.1,3.11c5.46,6.57,15.61,9.99,26.34,8.07c8.64-1.55,15.72-6.22,19.64-12.18
					c2.7-4.12,3.9-8.86,3.04-13.6c-0.27-1.51-0.73-2.95-1.36-4.3C1186.9,158.89,1185.99,160.33,1184.91,161.69"/>
			</g>
			<g class="st5">
				<path class="st6" d="M1263.32,132.07c-9.38,5.13-19.87,5.21-27.12,0.97c-2.81-1.64-5.13-3.93-6.72-6.83
					c-0.27-0.5-0.52-1.01-0.74-1.52c-1.91,5.35-1.77,10.96,0.86,15.75c1.79,3.28,4.53,5.78,7.86,7.45c0.11,0.06,0.22,0.11,0.33,0.16
					c5.09,2.44,11.49,2.96,17.92,1.32c2.6-0.67,5.21-1.68,7.73-3.06c12.39-6.79,18.39-19.95,14.05-30.14
					C1275.27,122.38,1270.32,128.24,1263.32,132.07"/>
			</g>
			<g class="st5">
				<path class="st6" d="M1191.42,112.23c-2.74,3.8-6.89,5.8-10.62,5.51c-1.51-0.12-2.94-0.61-4.19-1.5
					c-0.67-0.49-1.25-1.06-1.73-1.71c-1.32,4.32-0.29,8.76,2.95,11.1c0.49,0.35,1.01,0.65,1.56,0.87c4.24,1.79,9.84-0.15,13.25-4.88
					c2.47-3.43,3.2-7.48,2.26-10.77c-0.3-1.03-0.76-2-1.38-2.84c-0.23,0.75-0.52,1.49-0.89,2.22
					C1192.29,110.91,1191.88,111.58,1191.42,112.23"/>
			</g>
			<g class="st3">
				<path class="st4" d="M1250.25,116.61c6.98-2.65,13.22-3.23,13.95-1.32c0.73,1.92-4.34,5.62-11.31,8.27
					c-6.98,2.65-13.22,3.24-13.95,1.32C1238.21,122.96,1243.27,119.26,1250.25,116.61"/>
			</g>
			<g class="st3">
				<path class="st4" d="M1163.28,154.44c7.46,0.14,13.48,1.92,13.44,3.97c-0.04,2.05-6.12,3.6-13.58,3.46
					c-7.46-0.14-13.48-1.92-13.44-3.97C1149.74,155.85,1155.82,154.3,1163.28,154.44"/>
			</g>
		</g>
		<g class="st10">
			<ellipse class="st6" cx="1248.99" cy="310.68" rx="111.48" ry="20.18"/>
		</g>
	</g>
</g>
</svg>
