<?xml version="1.0" encoding="utf-8"?>
<!-- Generator: Adobe Illustrator 26.2.1, SVG Export Plug-In . SVG Version: 6.00 Build 0)  -->
<svg version="1.1" id="Layer_1" xmlns="http://www.w3.org/2000/svg" xmlns:xlink="http://www.w3.org/1999/xlink" x="0px" y="0px"
	 viewBox="0 0 511.78 328.83" style="enable-background:new 0 0 511.78 328.83;" xml:space="preserve">
<style type="text/css">
	.st0{fill-rule:evenodd;clip-rule:evenodd;fill:#E2962D;}
	.st1{fill:#650001;}
	.st2{fill-rule:evenodd;clip-rule:evenodd;fill:#FF8906;}
	.st3{opacity:0.5;}
	.st4{fill-rule:evenodd;clip-rule:evenodd;fill:#FFFFFF;}
	.st5{opacity:0.3;}
	.st6{fill-rule:evenodd;clip-rule:evenodd;fill:#650001;}
	.st7{fill-rule:evenodd;clip-rule:evenodd;fill:#FFBD02;}
	.st8{fill-rule:evenodd;clip-rule:evenodd;fill:#FFD8AD;}
	.st9{fill-rule:evenodd;clip-rule:evenodd;fill:#EB2D04;}
</style>
<g>
	<g>
		<path class="st0" d="M39.1,104.43C166.08-9.82,357.31-14.71,489.96,92.92C610.8,306.89,89.17,418.58,10.66,225.71
			C-6.02,184.72,9.47,137.32,39.1,104.43z"/>
	</g>
	<g>
		<path class="st1" d="M216.28,328.83c-12.82,0-25.45-0.57-37.73-1.74c-41.06-3.89-76.52-13.84-105.39-29.57
			c-31.9-17.38-54.12-41.06-66.05-70.37c-8.19-20.11-9.33-42.97-3.31-66.09c5.55-21.33,16.77-41.8,32.44-59.2
			c0.09-0.1,0.18-0.19,0.28-0.28c62.09-55.87,142.27-87.81,225.77-89.94c83.52-2.13,165.21,25.68,230.07,78.3
			c0.37,0.3,0.69,0.67,0.92,1.09c24.7,43.74,24.64,87.07-0.17,125.31c-23.93,36.88-70.7,68.49-131.69,89.01
			C315.9,320.67,264.7,328.83,216.28,328.83z M41.81,107.14c-31.47,35.04-42.31,80.99-27.6,117.13
			c21.72,53.36,80.34,87.17,165.06,95.2c57.59,5.46,123.1-2.33,179.71-21.38c59.36-19.97,104.72-50.48,127.71-85.92
			c23.37-36.02,23.46-75.29,0.28-116.74C355.06-11.16,168-6.28,41.81,107.14z"/>
	</g>
	<g>
		<path class="st2" d="M157.7,26.17c83.27-28.99,173.7-30.13,257.02-1.27c40.27,9.32,71.25,41.54,78.98,82.15
			c7.73,40.6-8.52,83.04-43.27,105.42c-2.96,1.9-6.46,0.02-9.04-1.94c-0.57,9.63-6.01,17.16-16.34,22.58
			C317.38,301,181.73,311.7,67.13,256.34c-4.06-1.96-3.63-8.26-2.8-12.7c-14.4,1.7-33.97-7.28-41.62-28.86
			C-2.32,144.16,45.02,70.27,116.6,48.12c4.83-1.5,9.46-1.44,13.77-0.22C133.73,37.81,143.07,31.27,157.7,26.17z"/>
	</g>
	<g>
		<path class="st1" d="M223.5,295.64c-54.98,0-109.15-12.23-158.04-35.85c-2.83-1.37-5.82-4.59-5.47-12.12
			c-15.55-0.32-33.46-10.63-40.89-31.61c-11.17-31.52-8.79-65.89,6.7-96.77c17.77-35.42,50.45-62.69,89.67-74.83
			c4.19-1.3,8.4-1.63,12.56-0.99c4.28-9,13.42-15.7,28.4-20.92c0,0,0,0,0,0C198.53,7.9,242.17,0.31,286.16,0.01
			c44.39-0.31,88.04,6.83,129.62,21.21c41.63,9.72,73.68,43.11,81.68,85.12c3.97,20.88,1.93,42.21-5.91,61.69
			c-8.01,19.89-21.51,36.37-39.04,47.66c-1.84,1.18-4.56,2.03-8.18,0.81c-2.16,8.28-7.97,14.97-17.35,19.93
			c-53.73,33.85-115.28,54.02-178.01,58.33C240.46,295.35,231.97,295.64,223.5,295.64z M64.33,239.81c1.05,0,2.07,0.43,2.8,1.21
			c0.83,0.89,1.19,2.12,0.97,3.32c-0.97,5.2-0.35,8.04,0.7,8.54c110.95,53.6,246.68,44.78,354.21-23.02
			c0.09-0.05,0.17-0.1,0.26-0.15c9.13-4.8,13.81-11.15,14.3-19.41c0.08-1.41,0.94-2.67,2.23-3.26c1.29-0.59,2.79-0.42,3.92,0.43
			c0.79,0.6,3.47,2.52,4.64,1.77c32.45-20.89,49.16-61.67,41.58-101.48c-7.44-39.09-37.31-70.15-76.08-79.13
			c-0.13-0.03-0.26-0.07-0.39-0.11c-81.09-28.1-171.47-27.65-254.5,1.26h0c-14.49,5.05-22.18,11-24.95,19.31
			c-0.65,1.94-2.71,3.03-4.68,2.48c-3.8-1.07-7.71-1.01-11.59,0.2C80.5,63.3,49.49,89.17,32.65,122.73
			c-14.55,28.99-16.79,61.23-6.32,90.77c6.8,19.18,24.42,27.88,37.56,26.34C64.03,239.82,64.18,239.81,64.33,239.81z"/>
	</g>
	<g class="st3">
		<path class="st4" d="M63.16,207.8c58.99-60.22,83.43-110.04,73.33-149.47C53.7,96.52,29.26,146.34,63.16,207.8"/>
	</g>
	<g class="st3">
		<path class="st4" d="M76.34,225.67c101.52-62.49,226.39-74.06,337.66-31.28c-48.75,40.29-107.56,63.23-167.87,68.03
			c4.92,0.46,8.28,1.56,8.33,2.98c0.08,2.07-6.97,4.02-15.74,4.34c-8.77,0.32-15.94-1.09-16.02-3.16c-0.05-1.26,2.51-2.46,6.49-3.29
			C176.92,264.52,124.13,252.15,76.34,225.67"/>
	</g>
	<g class="st3">
		<path class="st4" d="M376.55,173.85c-18.25-49.1-15.37-94.22,8.65-135.35c29.48,6.68,53.42,28.08,63.36,56.62
			c9.94,28.54,4.47,60.18-14.48,83.73C409.17,168.03,389.99,166.36,376.55,173.85"/>
	</g>
	<g class="st5">
		<path class="st6" d="M436.42,32.53c29.43,14.15,51,41.58,57.28,74.53c7.73,40.61-8.52,83.04-43.27,105.42
			c-2.96,1.9-6.46,0.02-9.03-1.94c-0.57,9.63-6.02,17.16-16.34,22.58C317.38,301,181.73,311.7,67.13,256.34
			c-4.06-1.96-3.63-8.26-2.8-12.7c-14.4,1.7-33.97-7.28-41.62-28.86c-24.43-68.93,20.09-140.96,88.8-164.97
			c2.05,0.4,4.11,0.84,6.15,1.32c-33.32,8.65-60.7,32.33-74.08,64.04c-13.38,31.72-11.22,67.85,5.84,97.75
			c4.95-6.05,12.69-8.6,23.22-7.64c9.02,4.91,9.63,12.61,1.83,23.07c-3.85,8.37-4.14,16.09,1.83,18.64
			c94.49,40.34,201.48,36.33,296.12-3.67c39.72-16.79,53.19-33.31,39.09-52.84c0,0,1-3.64,3-10.92c13.91-3.62,24.07-1.46,30.49,6.49
			c20.12-21.08,30.6-49.54,28.97-78.63C472.36,78.34,458.76,51.22,436.42,32.53"/>
	</g>
	<g class="st5">
		<path class="st6" d="M62.01,205.67c1.18-0.23,2.41-0.4,3.7-0.49l-2.55,2.62C62.76,207.09,62.39,206.38,62.01,205.67"/>
	</g>
	<g>
		<path class="st7" d="M347.14,33.02c18.68,0.64,30.78,0.29,36.3-1.06c-3.2,8.32-2.31,14.06,2.69,17.21
			c56.9,15.68,73.23,87.93,29.58,127.66c-3.79,3.45-4.57,8.58-4.19,13.65c-4.01,0.57-7.01,2.81-10.31,5.16
			c-90.11,64.17-208.4,73.1-307.9,24.74c-4.47-1.82-9.4-2.16-14.07-0.97c2.56-5.9,2.1-10.6-1.4-14.09
			C42.26,162.7,58.1,110.38,135.49,64C198.14,26.46,275.09,21.09,347.14,33.02z"/>
	</g>
	<g>
		<path class="st1" d="M226.88,255.05c-45.93,0-92.14-10.29-135.13-31.16c-3.65-1.46-7.76-1.74-11.57-0.76
			c-1.42,0.36-2.92-0.12-3.86-1.23c-0.95-1.11-1.18-2.67-0.6-4.01c2.51-5.79,0.87-8.39-0.59-9.85c-0.08-0.08-0.16-0.17-0.23-0.26
			c-15.46-18.51-21.52-38.4-18.01-59.11c5.18-30.6,31.68-61.02,76.63-87.96c72.24-43.29,156.2-41.04,214-31.51
			c22.54,0.77,31.49-0.1,35.02-0.96c1.38-0.34,2.84,0.12,3.78,1.19c0.94,1.07,1.21,2.58,0.7,3.91c-3.31,8.61-0.78,11.26,0.71,12.3
			c27.47,7.79,47.81,28.97,54.46,56.77c6.83,28.53-2.11,57.41-23.9,77.25c-2.36,2.15-3.32,5.59-2.95,10.53
			c0.15,2.01-1.28,3.8-3.28,4.08c-2.92,0.42-5.26,2.09-8.23,4.2l-0.4,0.28C351.09,236.04,289.26,255.04,226.88,255.05z
			 M84.78,214.89c3.41,0,6.82,0.65,9.98,1.94c0.08,0.03,0.15,0.07,0.23,0.1c98.88,48.06,215.37,38.71,304-24.41l0.39-0.28
			c2.51-1.79,5.09-3.63,8.23-4.73c0.15-5.77,1.99-10.31,5.52-13.51c19.7-17.93,27.77-44.02,21.6-69.8
			c-6.04-25.24-24.59-44.43-49.63-51.33c-0.36-0.1-0.71-0.25-1.03-0.45c-3.83-2.42-7.57-7.05-5.97-15.79
			c-6.84,0.63-17.12,0.7-31.11,0.22c-0.17-0.01-0.33-0.02-0.49-0.05c-56.55-9.36-138.71-11.67-209.06,30.48
			c-42.97,25.75-68.22,54.34-73.01,82.67c-3.1,18.35,2.36,36.11,16.24,52.79c2.42,2.47,4.65,6.39,3.85,12.15
			C84.61,214.89,84.69,214.89,84.78,214.89z"/>
	</g>
	<g class="st5">
		<path class="st6" d="M112.87,214.47l0.72,0.53l2.84-1.55C115.2,213.88,114.01,214.22,112.87,214.47 M215.69,207.02
			c17.62-1.62,32.65,5.07,33.56,14.95c0.91,9.88-12.64,19.2-30.27,20.82c-17.62,1.62-32.65-5.07-33.56-14.94
			C184.52,217.97,198.07,208.64,215.69,207.02z M173.78,131.24c14.56-1.34,26.98,4.18,27.73,12.35
			c0.75,8.16-10.45,15.86-25.01,17.21c-14.56,1.34-26.98-4.19-27.73-12.35C148.02,140.28,159.22,132.58,173.78,131.24z
			 M107.18,114.74c10.96-3.67,21.52-1.67,23.57,4.48c2.05,6.14-5.17,14.1-16.13,17.77c-10.96,3.67-21.51,1.67-23.57-4.48
			C89,126.37,96.22,118.41,107.18,114.74z M333.9,113.93c11.46-1.49,21.43,2.5,22.27,8.93c0.83,6.42-7.78,12.84-19.25,14.33
			c-11.46,1.49-21.43-2.51-22.27-8.94C313.82,121.83,322.44,115.42,333.9,113.93z M391.79,132.34c14.56-1.34,26.98,4.18,27.73,12.35
			c0.75,8.17-10.45,15.87-25.01,17.21c-14.56,1.34-26.98-4.19-27.73-12.35C366.03,141.39,377.22,133.69,391.79,132.34z
			 M301.75,36.04c14.56-1.34,26.98,4.18,27.73,12.35c0.75,8.17-10.45,15.87-25.01,17.21c-14.56,1.34-26.98-4.19-27.73-12.35
			C275.99,45.08,287.19,37.38,301.75,36.04z M257.84,95.02c15.85-6.04,26.81-6.46,41.32-12.61c-2.67,9.2,1.91,14.65-6.95,18.3
			C280.58,105.5,266.13,99.82,257.84,95.02z M397.41,100.63c7.9-2.65,15.51-1.2,16.99,3.23c1.48,4.42-3.72,10.16-11.62,12.8
			c-7.9,2.64-15.5,1.2-16.99-3.23C384.31,109.01,389.52,103.27,397.41,100.63z M325.83,207.15c5.33-1.84,7.5-3.03,5.8-6.24
			c-4.38-7.27-12.67-11.22-21.07-10.02c-8.4,1.2-16.15,7.12-17.43,15.5c-0.64,4.14,4.03,5.15,11.3,2.91c4.17-0.06,4,3.11,3.33,10.22
			c-0.36,3.79,4.4,6.17,8.2,5.93c3.8-0.23,7.65-3.11,7.4-6.9C322.97,212.78,322.63,208.25,325.83,207.15z M228.08,62.95
			c5.61-0.58,7.99-1.25,7.07-4.76c-2.62-8.07-9.81-13.8-18.25-14.53c-8.45-0.73-17.34,3.28-20.49,11.15
			c-1.56,3.89,2.76,5.93,10.35,5.39c4.08,0.89,3.19,3.93,0.93,10.7c-1.21,3.61,2.89,7.01,6.64,7.64c3.75,0.63,8.16-1.29,8.77-5.05
			C224.02,67.79,224.72,63.3,228.08,62.95z M118.03,168.09c5.33-1.84,7.5-3.03,5.8-6.24c-4.38-7.27-12.67-11.22-21.07-10.02
			c-8.4,1.19-16.15,7.12-17.43,15.5c-0.64,4.14,4.03,5.15,11.3,2.9c4.17-0.05,4,3.11,3.33,10.22c-0.35,3.79,4.4,6.17,8.2,5.93
			c3.8-0.23,7.65-3.1,7.4-6.9C115.17,173.73,114.83,169.19,118.03,168.09z M291.87,169.22c8.11-1.88,15.55,0.27,16.61,4.82
			c1.06,4.54-4.66,9.76-12.78,11.65c-8.12,1.88-15.55-0.27-16.61-4.82C278.03,176.32,283.76,171.11,291.87,169.22z M195.63,249.55
			c-35.02-3.61-69.68-13.31-102.32-29.17c-4.47-1.82-9.4-2.16-14.07-0.97c2.56-5.9,2.1-10.6-1.4-14.09
			C42.26,162.71,58.1,110.38,135.49,64c19.55-11.71,40.49-20.29,62.23-26.19C88.4,92.03,58.52,149.49,90.76,193.19
			c12.18,15.03,29.58,15.61,52.19,1.72c-4.93,4.66-9.52,8.5-13.78,11.53c30.01-16.61,71.7-40.29,125.09-71.05
			c3.25-4.53,5.29-8.16,6.09-10.9c-0.79-8.45-0.18-15.99,1.8-22.62c4.07,11.52,16.09,10.71,36.06-2.45c0,0,0.72,2.75,2.14,8.26
			c-16.67,11.75-15.71,21.22,2.9,28.42c-7.33,2.75-11,4.13-11,4.13c-18.77-8.91-34.5-6.7-47.18,6.63c1.38-1.59,2.67-3.12,3.87-4.58
			c-24.9,17.65-56.77,37.43-95.59,59.36c-18.56,10.88-23.86,20.02-15.89,27.41C153.74,237.01,173.2,243.93,195.63,249.55z"/>
	</g>
	<g>
		<path class="st1" d="M64.03,249.38c-0.06,0-0.13,0-0.19,0c-2.11-0.11-3.74-1.9-3.63-4.02c0.69-13.81,9.98-25.98,23.12-30.28
			c2.01-0.66,4.18,0.44,4.83,2.45c0.66,2.01-0.44,4.18-2.45,4.83c-10.14,3.32-17.32,12.72-17.85,23.38
			C67.75,247.79,66.06,249.38,64.03,249.38z"/>
	</g>
	<g>
		<path class="st1" d="M55.26,247.2c-0.99,0-1.98-0.38-2.73-1.14c-11.43-11.6-9.77-21.98-7.76-27.13c3.37-8.64,12.3-15,21.73-15.47
			c7.68-0.39,14.06,3.27,17.5,10.03c0.96,1.89,0.21,4.19-1.68,5.15c-1.88,0.96-4.19,0.21-5.15-1.68c-2.61-5.13-7.03-6.02-10.29-5.85
			c-6.41,0.32-12.7,4.78-14.97,10.6c-2.34,6-0.24,12.56,6.08,18.97c1.49,1.51,1.47,3.93-0.04,5.42
			C57.2,246.84,56.23,247.2,55.26,247.2z"/>
	</g>
	<g>
		<path class="st1" d="M440.52,219.68c-0.04,0-0.09,0-0.13,0c-2.11-0.07-3.77-1.84-3.7-3.96c0.22-6.34-2.4-12.37-7.17-16.55
			c-4.77-4.17-11.1-5.96-17.35-4.91c-2.08,0.36-4.06-1.05-4.41-3.14c-0.35-2.09,1.05-4.06,3.14-4.41c8.53-1.44,17.16,1,23.67,6.7
			c6.52,5.7,10.08,13.93,9.79,22.58C444.28,218.05,442.58,219.68,440.52,219.68z"/>
	</g>
	<g>
		<path class="st1" d="M445.02,189.88c-1.04,0-2.07-0.42-2.83-1.24c-6.93-7.57-18.17-9.63-27.34-5c-1.89,0.96-4.19,0.2-5.15-1.69
			c-0.95-1.89-0.2-4.19,1.69-5.15c12.22-6.17,27.2-3.43,36.44,6.66c1.43,1.56,1.32,3.98-0.24,5.41
			C446.87,189.55,445.94,189.88,445.02,189.88z"/>
	</g>
	<g>
		<path class="st1" d="M135.49,67.83c-0.52,0-1.04-0.1-1.54-0.33c-1.94-0.85-2.82-3.11-1.97-5.05c1.09-2.47,0.9-5.32-0.5-7.63
			c-1.4-2.31-3.84-3.8-6.54-3.97c-2.11-0.14-3.71-1.97-3.57-4.08c0.14-2.11,1.94-3.71,4.08-3.57c5.19,0.35,9.89,3.21,12.58,7.65
			c2.69,4.44,3.05,9.93,0.96,14.69C138.37,66.97,136.96,67.83,135.49,67.83z"/>
	</g>
	<g>
		<path class="st1" d="M150.13,50.82c-1.6,0-3.09-1.01-3.63-2.61c-1.37-4.09-4.88-7.06-9.14-7.75c-2.09-0.34-3.51-2.31-3.17-4.4
			c0.34-2.09,2.31-3.51,4.4-3.17c7.08,1.15,12.89,6.08,15.17,12.87c0.67,2.01-0.4,4.18-2.41,4.85
			C150.95,50.75,150.54,50.82,150.13,50.82z"/>
	</g>
	<g>
		<path class="st1" d="M98.8,226.81c-1.37,0-2.69-0.73-3.38-2.02c-1-1.86-0.3-4.19,1.57-5.19
			c110.71-59.34,205.87-119.33,282.85-178.31c1.68-1.29,4.08-0.97,5.37,0.71c1.29,1.68,0.97,4.08-0.71,5.37
			c-77.31,59.23-172.82,119.45-283.89,178.98C100.03,226.66,99.41,226.81,98.8,226.81z"/>
	</g>
	<g>
		<path class="st1" d="M413.71,194.05c-0.51,0-1.03-0.1-1.53-0.32c-95.42-41.65-187.74-84.93-274.41-128.65
			c-1.89-0.95-2.65-3.26-1.7-5.15c0.95-1.89,3.26-2.65,5.15-1.7c86.55,43.66,178.74,86.88,274.03,128.47
			c1.94,0.85,2.83,3.1,1.98,5.04C416.6,193.19,415.19,194.05,413.71,194.05z"/>
	</g>
	<g>
		<path class="st8" d="M333.32,200.42c5.33-1.84,7.5-3.02,5.8-6.24c-4.37-7.27-12.67-11.22-21.07-10.02
			c-8.4,1.19-16.14,7.12-17.43,15.51c-0.64,4.13,4.03,5.15,11.3,2.9c4.17-0.06,4,3.11,3.33,10.22c-0.36,3.79,4.4,6.17,8.2,5.93
			c3.8-0.23,7.65-3.11,7.4-6.9C330.46,206.06,330.12,201.52,333.32,200.42z"/>
	</g>
	<g>
		<path class="st1" d="M322.91,222.57c-3.41,0-6.92-1.38-9.09-3.63c-1.76-1.82-2.61-4.13-2.38-6.51c0.16-1.73,0.41-4.38,0.33-5.83
			c-5.82,1.58-10.1,1.23-12.73-1.04c-1.82-1.57-2.6-3.87-2.2-6.48c1.46-9.5,9.96-17.2,20.68-18.72c9.94-1.41,19.72,3.24,24.89,11.84
			c0.04,0.06,0.07,0.12,0.11,0.19c1.11,2.1,1.31,4.08,0.59,5.88c-1.19,3-4.35,4.32-8.37,5.71c-0.49,1.1-0.24,4.87-0.07,7.41
			l0.01,0.17c0.16,2.47-0.7,4.91-2.43,6.88c-2.09,2.37-5.29,3.9-8.56,4.1C323.42,222.57,323.17,222.57,322.91,222.57z
			 M312.02,198.74c2.31,0,4.14,0.71,5.45,2.13c2.49,2.7,2.12,6.72,1.6,12.28c-0.01,0.06-0.02,0.18,0.26,0.47
			c0.78,0.81,2.5,1.39,3.89,1.29c1.25-0.08,2.54-0.67,3.28-1.52c0.58-0.65,0.54-1.14,0.53-1.31l-0.01-0.17
			c-0.43-6.42-0.87-13.06,5.06-15.11c0,0,0,0,0,0c1.52-0.52,2.64-0.95,3.35-1.29c-3.68-5.54-10.21-8.49-16.83-7.55
			c-7.24,1.03-12.98,5.89-14.11,11.89c0.91,0.14,2.93,0.11,6.31-0.93c0.35-0.11,0.71-0.17,1.08-0.17
			C311.92,198.74,311.97,198.74,312.02,198.74z M334.57,204.05C334.57,204.05,334.57,204.05,334.57,204.05L334.57,204.05z"/>
	</g>
	<g>
		<path class="st8" d="M231.1,64.29c4.64,0.34,6.67,0.14,6.43-2.84c-0.95-6.93-5.96-12.62-12.71-14.45
			c-6.75-1.82-14.55,0.15-18.25,6.09c-1.83,2.93,1.38,5.21,7.62,5.87c3.18,1.31,2.02,3.66-0.79,8.83c-1.5,2.76,1.33,6.11,4.28,7.16
			c2.95,1.06,6.81,0.13,7.85-2.83C227.11,67.63,228.32,64.08,231.1,64.29z"/>
	</g>
	<g>
		<path class="st1" d="M216.01,77.69c-2.59-1.11-4.79-3.29-5.71-5.7c-0.74-1.95-0.63-3.98,0.31-5.71c0.68-1.25,1.73-3.19,2.15-4.31
			c-4.92-0.69-8.05-2.35-9.31-4.93c-0.87-1.78-0.71-3.78,0.44-5.63c4.19-6.73,13.14-9.8,21.76-7.47c8,2.16,13.89,8.86,15.02,17.07
			c0.01,0.06,0.01,0.12,0.02,0.18c0.16,1.95-0.33,3.51-1.46,4.65c-1.87,1.89-4.7,1.86-8.2,1.61c-0.73,0.68-1.77,3.62-2.46,5.59
			l-0.05,0.14c-0.68,1.93-2.13,3.5-4.07,4.42c-2.35,1.12-5.27,1.24-7.82,0.33C216.41,77.85,216.21,77.78,216.01,77.69z
			 M215.51,56.09c1.75,0.75,2.91,1.89,3.44,3.38c1.01,2.86-0.58,5.78-2.78,9.83c-0.02,0.04-0.07,0.13,0.04,0.44
			c0.33,0.87,1.44,1.86,2.53,2.24c0.97,0.35,2.14,0.32,2.98-0.08c0.65-0.31,0.78-0.69,0.83-0.82l0.05-0.13
			c1.76-5.01,3.58-10.18,8.74-9.81c0,0,0,0,0,0c1.32,0.1,2.31,0.13,2.96,0.11c-0.99-5.4-4.98-9.75-10.3-11.19
			c-5.82-1.57-11.75,0.25-14.56,4.43c0.64,0.4,2.19,1.03,5.09,1.34c0.3,0.03,0.59,0.11,0.87,0.22
			C215.43,56.06,215.47,56.07,215.51,56.09z M230.87,67.44C230.87,67.44,230.87,67.44,230.87,67.44L230.87,67.44z"/>
	</g>
	<g>
		<path class="st9" d="M220.37,198.78c17.62-1.62,32.65,5.07,33.56,14.95c0.91,9.88-12.64,19.2-30.26,20.82
			c-17.62,1.63-32.65-5.07-33.56-14.94C189.19,209.73,202.75,200.4,220.37,198.78z"/>
	</g>
	<g>
		<path class="st1" d="M218.41,238.62c-7.13,0-13.85-1.28-19.36-3.73c-7.66-3.41-12.2-8.71-12.77-14.93
			c-0.57-6.22,2.92-12.26,9.82-17.02c6.25-4.3,14.74-7.13,23.9-7.98c0,0,0,0,0,0c9.17-0.85,18.03,0.39,24.96,3.48
			c7.66,3.41,12.2,8.72,12.77,14.93c0.57,6.22-2.92,12.26-9.82,17.02c-6.25,4.3-14.74,7.13-23.9,7.97
			C222.13,238.54,220.26,238.62,218.41,238.62z M220.72,202.59c-7.88,0.73-15.08,3.09-20.26,6.66c-4.46,3.07-6.84,6.71-6.54,10
			c0.3,3.29,3.31,6.44,8.26,8.64c5.75,2.56,13.26,3.57,21.14,2.84c7.88-0.73,15.08-3.09,20.26-6.66c4.46-3.07,6.84-6.71,6.54-10
			c-0.3-3.29-3.31-6.44-8.26-8.64C236.11,202.88,228.6,201.87,220.72,202.59L220.72,202.59z"/>
	</g>
	<g>
		<path class="st9" d="M178.45,122.87c14.56-1.34,26.98,4.19,27.73,12.35c0.75,8.16-10.45,15.86-25.01,17.21
			c-14.56,1.35-26.98-4.18-27.73-12.35C152.69,131.92,163.89,124.21,178.45,122.87z"/>
	</g>
	<g>
		<path class="st1" d="M176.84,156.46c-5.98,0-11.63-1.08-16.26-3.14c-6.56-2.92-10.45-7.5-10.94-12.89
			c-0.96-10.42,11.54-19.81,28.47-21.38c0,0,0,0,0,0c7.69-0.71,15.13,0.33,20.96,2.93c6.56,2.92,10.45,7.5,10.94,12.89
			c0.5,5.39-2.49,10.6-8.4,14.67c-5.25,3.61-12.38,6-20.07,6.7C179.95,156.39,178.38,156.46,176.84,156.46z M178.81,126.68
			c-13.29,1.23-22.02,7.86-21.54,13.04c0.23,2.47,2.57,4.87,6.43,6.59c4.58,2.04,10.83,2.88,17.13,2.29
			c6.31-0.58,12.3-2.54,16.43-5.39c3.48-2.39,5.34-5.18,5.12-7.65c-0.23-2.47-2.57-4.87-6.43-6.59
			C191.36,126.94,185.11,126.1,178.81,126.68L178.81,126.68z"/>
	</g>
	<g>
		<path class="st9" d="M108.55,105.88c10.96-3.67,21.51-1.67,23.57,4.48c2.06,6.14-5.16,14.1-16.12,17.77
			c-10.96,3.67-21.52,1.66-23.57-4.48C90.37,117.5,97.59,109.55,108.55,105.88z"/>
	</g>
	<g>
		<path class="st1" d="M105.42,133.78c-8.19,0-14.72-3.21-16.63-8.92c-1.45-4.34-0.04-9.17,3.98-13.6
			c3.48-3.83,8.65-7.03,14.56-9.01l0,0c5.91-1.98,11.97-2.54,17.06-1.57c5.87,1.12,9.91,4.12,11.36,8.47
			c2.77,8.27-5.38,18.21-18.54,22.62C113.13,133.13,109.11,133.78,105.42,133.78z M119.27,107.88c-2.98,0-6.28,0.56-9.5,1.64
			c0,0,0,0,0,0c-4.62,1.55-8.75,4.06-11.32,6.9c-2.04,2.25-2.91,4.44-2.38,6.02c1.18,3.54,9.44,5.17,18.72,2.06
			c9.28-3.11,14.89-9.38,13.71-12.92c-0.53-1.57-2.54-2.8-5.53-3.37C121.82,107.99,120.57,107.88,119.27,107.88z M108.55,105.88
			L108.55,105.88L108.55,105.88z"/>
	</g>
	<g>
		<path class="st9" d="M394.17,94.36c7.9-2.65,15.51-1.2,16.99,3.23c1.48,4.43-3.72,10.16-11.62,12.81
			c-7.9,2.64-15.51,1.2-16.99-3.23C381.06,102.74,386.27,97.01,394.17,94.36z"/>
	</g>
	<g>
		<path class="st1" d="M391.79,115.57c-6.34,0-11.34-2.58-12.88-7.19c-2.22-6.64,3.81-14.23,14.04-17.65
			c4.43-1.48,8.99-1.9,12.83-1.17c4.56,0.87,7.85,3.35,9.01,6.81c2.22,6.64-3.81,14.23-14.04,17.66
			C397.63,115.07,394.58,115.57,391.79,115.57z M401.88,96.87c-2.03,0-4.29,0.38-6.5,1.12l0,0c-6.62,2.22-9.72,6.41-9.21,7.96
			c0.52,1.54,5.52,3.02,12.14,0.81c6.62-2.22,9.72-6.41,9.2-7.96c-0.24-0.72-1.49-1.4-3.17-1.72
			C403.59,96.94,402.76,96.87,401.88,96.87z M394.17,94.36L394.17,94.36L394.17,94.36z"/>
	</g>
	<g>
		<path class="st9" d="M290.21,160.94c8.12-1.88,15.55,0.27,16.61,4.82c1.06,4.55-4.66,9.76-12.78,11.65
			c-8.12,1.89-15.55-0.27-16.61-4.82C276.37,168.04,282.09,162.83,290.21,160.94z"/>
	</g>
	<g>
		<path class="st1" d="M288.27,181.92c-2.22,0-4.34-0.28-6.25-0.83c-4.46-1.3-7.49-4.08-8.32-7.64
			c-1.59-6.82,5.14-13.81,15.64-16.25c0,0,0,0,0,0c10.5-2.44,19.62,0.86,21.21,7.68c1.59,6.82-5.14,13.81-15.64,16.25
			C292.67,181.66,290.42,181.92,288.27,181.92z M291.08,164.67c-6.8,1.58-10.29,5.46-9.92,7.05c0.17,0.74,1.35,1.53,2.99,2.01
			c2.48,0.72,5.76,0.7,9.01-0.06c6.8-1.58,10.29-5.46,9.92-7.05C302.72,165.04,297.88,163.09,291.08,164.67L291.08,164.67z"/>
	</g>
	<g>
		<path class="st8" d="M125.8,161.31c5.33-1.84,7.5-3.03,5.8-6.24c-4.37-7.27-12.67-11.22-21.07-10.02
			c-8.4,1.19-16.15,7.12-17.43,15.51c-0.64,4.14,4.03,5.15,11.3,2.9c4.17-0.05,4,3.11,3.33,10.22c-0.36,3.79,4.4,6.17,8.2,5.93
			c3.8-0.24,7.65-3.1,7.4-6.9C122.94,166.94,122.61,162.41,125.8,161.31z"/>
	</g>
	<g>
		<path class="st1" d="M115.39,183.46c-3.42,0-6.92-1.38-9.09-3.63c-1.76-1.82-2.61-4.13-2.38-6.51c0.17-1.83,0.41-4.41,0.33-5.83
			c-5.82,1.59-10.1,1.24-12.73-1.04c-1.82-1.57-2.6-3.87-2.2-6.48c1.46-9.5,9.96-17.2,20.68-18.72c9.94-1.41,19.71,3.24,24.89,11.84
			c0.04,0.06,0.07,0.12,0.11,0.19c1.11,2.1,1.31,4.07,0.59,5.88c-1.19,3-4.35,4.32-8.38,5.71c-0.49,1.1-0.24,4.86-0.07,7.38
			l0.01,0.2c0.17,2.47-0.69,4.91-2.42,6.87c-2.08,2.37-5.28,3.91-8.56,4.11C115.91,183.45,115.65,183.46,115.39,183.46z
			 M104.5,159.63c2.32,0,4.15,0.72,5.46,2.13c2.49,2.7,2.11,6.71,1.59,12.27c-0.01,0.06-0.02,0.19,0.26,0.47
			c0.78,0.81,2.48,1.38,3.89,1.29c1.23-0.08,2.55-0.69,3.28-1.52c0.57-0.65,0.54-1.14,0.53-1.3l-0.01-0.2
			c-0.43-6.41-0.87-13.04,5.06-15.08l0,0c1.52-0.52,2.64-0.96,3.35-1.29c-3.68-5.54-10.2-8.5-16.83-7.55
			c-7.24,1.03-12.98,5.89-14.12,11.89c0.92,0.14,2.94,0.11,6.31-0.94c0.35-0.11,0.71-0.17,1.08-0.17
			C104.4,159.63,104.45,159.63,104.5,159.63z M125.8,161.31l1.25,3.62c0,0,0,0,0,0c0,0,0,0,0,0L125.8,161.31z"/>
	</g>
	<g class="st5">
		<path class="st6" d="M223.67,219.57c-13.48,1.24-25.43-2.37-30.72-8.56c-2.07,2.68-3.12,5.61-2.84,8.59
			c0.91,9.88,15.94,16.56,33.57,14.94c17.62-1.62,31.18-10.95,30.27-20.82c-0.21-2.33-1.21-4.48-2.84-6.38
			C246.29,213.55,235.97,218.44,223.67,219.57"/>
	</g>
	<g class="st5">
		<path class="st6" d="M293.73,168.85c-0.63,0.15-1.25,0.27-1.86,0.37c-3.18,0.5-6.18,0.39-8.65-0.24
			c-1.63-0.42-3.03-1.06-4.08-1.91c-0.5,0.61-0.91,1.23-1.21,1.86c-0.58,1.22-0.78,2.46-0.5,3.66c1.06,4.55,8.49,6.71,16.61,4.82
			c5.61-1.31,10.08-4.21,11.95-7.37c0.84-1.41,1.15-2.87,0.83-4.28c-0.27-1.18-0.98-2.2-2.01-3.03
			C302.61,165.39,298.6,167.72,293.73,168.85"/>
	</g>
	<g class="st5">
		<path class="st6" d="M398.01,101.84c-5.65,1.89-11.16,1.69-14.37-0.21c-1.23,1.87-1.67,3.8-1.09,5.53
			c1.48,4.43,9.09,5.87,16.99,3.23c7.9-2.65,13.1-8.38,11.62-12.8c-0.42-1.26-1.34-2.28-2.62-3.03
			C406.63,97.47,402.82,100.23,398.01,101.84"/>
	</g>
	<g class="st5">
		<path class="st6" d="M181,140.04c-11.05,1.02-20.86-1.92-25.28-6.96c-1.66,2.19-2.49,4.58-2.27,6.99
			c0.75,8.17,13.17,13.69,27.73,12.35c14.56-1.34,25.76-9.04,25.01-17.21c-0.18-1.97-1.04-3.79-2.45-5.39
			C199.8,135.01,191.23,139.09,181,140.04"/>
	</g>
	<g class="st5">
		<path class="st6" d="M128.13,105.95c-1.49,5.11-7.71,10.47-16.13,13.29c-7.63,2.55-15.07,2.36-19.57-0.07
			c-0.45,1.54-0.47,3.06,0,4.48c2.06,6.15,12.61,8.15,23.57,4.48c4.62-1.55,8.57-3.85,11.45-6.46c3.95-3.59,5.87-7.75,4.68-11.3
			C131.5,108.5,130.09,107.01,128.13,105.95"/>
	</g>
	<g class="st5">
		<path class="st6" d="M265.9,186.44c4.05,0,7.34,3.28,7.34,7.33c0,4.05-3.29,7.34-7.34,7.34c-4.05,0-7.34-3.28-7.34-7.34
			C258.56,189.72,261.85,186.44,265.9,186.44"/>
	</g>
	<g class="st5">
		<path class="st6" d="M151,78.26c4.05,0,7.34,3.28,7.34,7.34c0,4.05-3.29,7.33-7.34,7.33c-4.05,0-7.34-3.28-7.34-7.33
			C143.66,81.55,146.95,78.26,151,78.26"/>
	</g>
	<g class="st5">
		<path class="st6" d="M391.2,67.26c4.05,0,7.34,3.29,7.34,7.34c0,4.05-3.29,7.34-7.34,7.34c-4.05,0-7.34-3.28-7.34-7.34
			C383.86,70.55,387.14,67.26,391.2,67.26"/>
	</g>
	<g class="st5">
		<path class="st6" d="M168.72,216.38c2.03,0,3.67,1.64,3.67,3.67c0,2.03-1.65,3.68-3.67,3.68c-2.03,0-3.67-1.64-3.67-3.68
			C165.04,218.03,166.69,216.38,168.72,216.38"/>
	</g>
	<g class="st5">
		<path class="st6" d="M350.09,143.35c2.03,0,3.67,1.64,3.67,3.68c0,2.03-1.64,3.67-3.67,3.67c-2.03,0-3.67-1.64-3.67-3.67
			C346.42,145,348.06,143.35,350.09,143.35"/>
	</g>
	<g class="st5">
		<path class="st6" d="M274.3,142.74c2.03,0,3.67,1.64,3.67,3.67c0,2.03-1.64,3.68-3.67,3.68c-2.03,0-3.67-1.64-3.67-3.68
			C270.63,144.39,272.28,142.74,274.3,142.74"/>
	</g>
	<g class="st5">
		<path class="st6" d="M144.73,114.63c2.03,0,3.67,1.64,3.67,3.67c0,2.03-1.64,3.67-3.67,3.67c-2.03,0-3.67-1.64-3.67-3.67
			C141.06,116.27,142.71,114.63,144.73,114.63"/>
	</g>
	<g class="st5">
		<path class="st6" d="M362.93,191.64c2.03,0,3.67,1.64,3.67,3.67c0,2.03-1.65,3.68-3.67,3.68c-2.03,0-3.67-1.64-3.67-3.68
			C359.26,193.28,360.9,191.64,362.93,191.64"/>
	</g>
	<g class="st5">
		<path class="st6" d="M234.58,175.14c2.03,0,3.67,1.64,3.67,3.67c0,2.03-1.64,3.68-3.67,3.68c-2.03,0-3.67-1.64-3.67-3.68
			C230.91,176.78,232.56,175.14,234.58,175.14"/>
	</g>
	<g class="st5">
		<path class="st6" d="M277.36,224.34c1.52,0,2.76,1.23,2.76,2.75c0,1.52-1.23,2.75-2.76,2.75c-1.52,0-2.75-1.23-2.75-2.75
			C274.6,225.57,275.84,224.34,277.36,224.34"/>
	</g>
	<g class="st5">
		<path class="st6" d="M328.55,90.95c1.52,0,2.75,1.23,2.75,2.75c0,1.52-1.23,2.76-2.75,2.76c-1.52,0-2.75-1.23-2.75-2.76
			C325.8,92.18,327.03,90.95,328.55,90.95"/>
	</g>
	<g class="st5">
		<path class="st6" d="M180.64,57.94c1.52,0,2.76,1.23,2.76,2.75c0,1.52-1.23,2.76-2.76,2.76c-1.52,0-2.75-1.23-2.75-2.76
			C177.89,59.18,179.12,57.94,180.64,57.94"/>
	</g>
	<g class="st3">
		<path class="st4" d="M222.7,206.27c6.38-0.55,11.67,0.43,11.82,2.18c0.15,1.75-4.89,3.62-11.27,4.17
			c-6.38,0.55-11.67-0.43-11.82-2.18C211.27,208.69,216.32,206.82,222.7,206.27"/>
	</g>
	<g class="st3">
		<path class="st4" d="M179.71,128.56c5.05-0.44,9.23,0.33,9.35,1.72c0.12,1.39-3.87,2.86-8.91,3.3c-5.05,0.43-9.23-0.34-9.35-1.72
			C170.67,130.47,174.66,129,179.71,128.56"/>
	</g>
	<g class="st3">
		<path class="st4" d="M110.12,111.47c2.98-1.1,5.63-1.32,5.93-0.5c0.3,0.82-1.86,2.37-4.84,3.47c-2.97,1.1-5.63,1.32-5.93,0.5
			C104.98,114.12,107.15,112.57,110.12,111.47"/>
	</g>
	<g>
		<g>
			<path class="st9" d="M394.84,122.87c14.56-1.34,26.98,4.19,27.73,12.35c0.75,8.16-10.44,15.86-25.01,17.21
				c-14.56,1.35-26.98-4.18-27.73-12.35C369.08,131.92,380.28,124.21,394.84,122.87z"/>
		</g>
		<g>
			<path class="st1" d="M393.22,156.46c-5.98,0-11.63-1.08-16.26-3.14c-6.56-2.92-10.45-7.5-10.94-12.89
				c-0.96-10.42,11.55-19.81,28.47-21.38c0,0,0,0,0,0c16.92-1.56,30.94,5.39,31.9,15.81c0.5,5.39-2.49,10.6-8.4,14.67
				c-5.25,3.61-12.38,6-20.07,6.7C396.34,156.39,394.77,156.46,393.22,156.46z M395.19,126.68c-13.29,1.23-22.02,7.86-21.55,13.04
				c0.23,2.47,2.57,4.87,6.43,6.59c4.58,2.04,10.83,2.88,17.13,2.29c6.31-0.58,12.3-2.54,16.43-5.39c3.48-2.39,5.34-5.18,5.12-7.65
				C418.28,130.38,408.49,125.46,395.19,126.68L395.19,126.68z"/>
		</g>
		<g class="st5">
			<path class="st6" d="M397.72,142.03c-11.88,1.1-22.34-2.38-26.19-8.14c-1.28,1.96-1.89,4.05-1.7,6.17
				c0.75,8.17,13.17,13.69,27.73,12.35c14.56-1.34,25.76-9.04,25.01-17.21c-0.14-1.5-0.67-2.91-1.54-4.21
				C417.42,136.57,408.49,141.04,397.72,142.03"/>
		</g>
		<g class="st3">
			<path class="st4" d="M395.88,128.82c6.38-0.55,11.67,0.43,11.82,2.18c0.15,1.75-4.9,3.62-11.27,4.17
				c-6.38,0.55-11.67-0.42-11.82-2.18C384.46,131.24,389.51,129.37,395.88,128.82"/>
		</g>
	</g>
	<g>
		<g>
			<path class="st9" d="M297.89,28.42c14.56-1.34,26.98,4.19,27.73,12.35c0.75,8.16-10.44,15.86-25.01,17.21
				c-14.56,1.35-26.98-4.18-27.73-12.35C272.13,37.47,283.32,29.76,297.89,28.42z"/>
		</g>
		<g>
			<path class="st1" d="M296.27,62.01c-5.98,0-11.63-1.08-16.26-3.14c-6.56-2.92-10.45-7.5-10.94-12.89
				c-0.96-10.42,11.55-19.81,28.47-21.38c0,0,0,0,0,0c16.92-1.56,30.94,5.39,31.9,15.81c0.5,5.39-2.49,10.6-8.4,14.67
				c-5.25,3.61-12.38,6-20.07,6.7C299.38,61.94,297.81,62.01,296.27,62.01z M298.24,32.23c-13.29,1.23-22.02,7.86-21.55,13.04
				c0.23,2.47,2.57,4.87,6.43,6.59c4.58,2.04,10.83,2.88,17.13,2.29c6.31-0.58,12.3-2.54,16.43-5.39c3.48-2.39,5.34-5.18,5.12-7.65
				C321.33,35.93,311.53,31.01,298.24,32.23L298.24,32.23z"/>
		</g>
		<g class="st5">
			<path class="st6" d="M300.76,47.58c-11.88,1.1-22.34-2.38-26.19-8.14c-1.28,1.96-1.89,4.05-1.7,6.17
				c0.75,8.17,13.17,13.69,27.73,12.35c14.56-1.34,25.76-9.04,25.01-17.21c-0.14-1.5-0.67-2.91-1.54-4.21
				C320.46,42.12,311.53,46.59,300.76,47.58"/>
		</g>
		<g class="st3">
			<path class="st4" d="M298.93,34.37c6.38-0.55,11.67,0.43,11.82,2.18c0.15,1.75-4.9,3.62-11.27,4.17
				c-6.38,0.55-11.67-0.42-11.82-2.18C287.51,36.78,292.55,34.92,298.93,34.37"/>
		</g>
	</g>
	<g>
		<g>
			<path class="st9" d="M336.18,106.66c11.46-1.49,21.43,2.51,22.27,8.93c0.84,6.42-7.78,12.84-19.24,14.33
				c-11.46,1.49-21.43-2.51-22.27-8.93C316.11,114.57,324.72,108.15,336.18,106.66z"/>
		</g>
		<g>
			<path class="st1" d="M334.46,134.06c-4.3,0-8.36-0.71-11.79-2.08c-5.55-2.23-8.93-5.95-9.52-10.5
				c-0.59-4.54,1.73-9.01,6.52-12.58c4.15-3.09,9.84-5.24,16.03-6.04l0,0c6.18-0.8,12.24-0.19,17.04,1.74
				c5.55,2.23,8.93,5.95,9.52,10.5c0.59,4.54-1.73,9.01-6.52,12.58c-4.15,3.09-9.84,5.24-16.03,6.04
				C337.93,133.95,336.18,134.06,334.46,134.06z M340.91,110.18c-1.39,0-2.81,0.09-4.23,0.28c0,0,0,0,0,0
				c-4.83,0.63-9.36,2.3-12.44,4.59c-2.44,1.82-3.71,3.8-3.5,5.45c0.21,1.65,1.96,3.24,4.78,4.37c3.56,1.43,8.37,1.88,13.2,1.25
				c4.83-0.63,9.37-2.3,12.44-4.59c2.44-1.82,3.71-3.8,3.5-5.45c-0.21-1.65-1.96-3.24-4.78-4.37
				C347.37,110.71,344.23,110.18,340.91,110.18z M336.18,106.66L336.18,106.66L336.18,106.66z"/>
		</g>
		<g class="st5">
			<path class="st6" d="M338.75,119.23c-8.42,1.09-16.03-0.77-19.81-4.38c-1.53,1.93-2.27,4.04-2,6.14
				c0.84,6.43,10.81,10.43,22.27,8.94c11.46-1.49,20.08-7.91,19.24-14.33c-0.22-1.71-1.09-3.24-2.46-4.55
				C352.87,115,346.45,118.23,338.75,119.23"/>
		</g>
		<g class="st3">
			<path class="st4" d="M337.86,112.06c3.13-0.49,5.78-0.18,5.91,0.68c0.13,0.86-2.3,1.96-5.43,2.44c-3.13,0.49-5.78,0.18-5.92-0.68
				C332.29,113.64,334.72,112.55,337.86,112.06"/>
		</g>
	</g>
	<g>
		<g>
			<path class="st9" d="M273.09,73.97c11.46-1.49,21.43,2.51,22.27,8.93c0.84,6.42-7.78,12.84-19.24,14.33
				c-11.46,1.49-21.43-2.51-22.27-8.93C253.01,81.88,261.63,75.46,273.09,73.97z"/>
		</g>
		<g>
			<path class="st1" d="M271.36,101.37c-4.3,0-8.36-0.71-11.79-2.08c-5.55-2.23-8.93-5.95-9.52-10.5
				c-0.59-4.54,1.73-9.01,6.52-12.58c4.15-3.09,9.84-5.24,16.03-6.04l0,0c6.18-0.8,12.24-0.19,17.04,1.74
				c5.55,2.23,8.93,5.95,9.52,10.5c0.59,4.54-1.73,9.01-6.52,12.58c-4.15,3.09-9.84,5.24-16.03,6.04
				C274.84,101.26,273.08,101.37,271.36,101.37z M277.81,77.49c-1.39,0-2.81,0.09-4.23,0.28c0,0,0,0,0,0
				c-4.83,0.63-9.36,2.3-12.44,4.59c-2.44,1.82-3.71,3.8-3.5,5.45c0.21,1.65,1.96,3.24,4.78,4.37c3.56,1.43,8.37,1.88,13.2,1.25
				c4.83-0.63,9.37-2.3,12.44-4.59c2.44-1.82,3.71-3.8,3.5-5.45c-0.21-1.65-1.96-3.24-4.78-4.37
				C284.27,78.02,281.14,77.49,277.81,77.49z M273.09,73.97L273.09,73.97L273.09,73.97z"/>
		</g>
		<g class="st5">
			<path class="st6" d="M275.66,86.54c-8.42,1.09-16.03-0.77-19.81-4.38c-1.53,1.93-2.27,4.04-2,6.14
				c0.84,6.43,10.81,10.43,22.27,8.94c11.46-1.49,20.08-7.91,19.24-14.33c-0.22-1.71-1.09-3.24-2.46-4.55
				C289.77,82.31,283.36,85.53,275.66,86.54"/>
		</g>
		<g class="st3">
			<path class="st4" d="M274.77,79.36c3.13-0.49,5.78-0.18,5.91,0.68c0.13,0.86-2.3,1.96-5.43,2.44c-3.13,0.49-5.78,0.18-5.92-0.68
				C269.2,80.95,271.63,79.85,274.77,79.36"/>
		</g>
	</g>
</g>
</svg>
